<svg width="127" height="60" viewBox="0 0 127 60" fill="none" xmlns="http://www.w3.org/2000/svg">
<path d="M63.9371 0.00552127C71.3319 0.242523 76.8932 6.48521 76.5138 13.7672C76.1353 21.0304 70.1214 26.4559 63.0846 26.1662C55.7531 25.865 50.4947 19.7614 50.6346 12.8966C50.7926 5.14302 57.1052 -0.196095 63.9371 0.00552127ZM74.9371 12.8826C74.8631 6.76747 69.9428 1.5666 63.575 1.58224C57.2385 1.59705 52.3133 6.6284 52.208 12.904C52.0977 19.4545 57.3307 24.6652 63.7388 24.6002C69.7955 24.5385 75.077 19.4397 74.9371 12.8826Z" fill="#040404"/>
<path d="M12.1002 40.4058C12.1404 41.4143 12.1751 44.1868 12.1718 45.1961C12.1694 45.9211 12.2015 46.6445 12.1332 47.3711C12.0245 48.5322 11.0782 49.0367 10.266 49.2054C9.79771 49.3025 9.31795 49.3321 8.83572 49.3313C6.02544 49.3239 3.21516 49.3206 0.404882 49.3346C0.0748906 49.3362 0.00165051 49.2457 0.00247344 48.9272C0.0131714 44.9665 0.0131714 41.005 4.67061e-06 37.0443C-0.000818251 36.7061 0.106985 36.6476 0.417226 36.6484C3.48755 36.66 6.55869 36.6542 9.62902 36.6542C9.73846 36.6542 9.84874 36.6517 9.95818 36.6583C11.3432 36.7332 12.055 37.4623 12.0879 38.8481C12.1003 39.355 12.0747 39.8628 12.0986 40.3689C12.0992 40.3812 12.0997 40.3936 12.1002 40.4058ZM5.86003 43.8762C5.85958 43.8762 5.85921 43.8758 5.85921 43.8753C5.85921 43.8749 5.85884 43.8745 5.85839 43.8745C4.8728 43.8745 3.88721 43.8836 2.90163 43.8688C2.6457 43.8646 2.57328 43.9403 2.5774 44.1922C2.59056 45.0406 2.58727 45.8898 2.57411 46.7383C2.57081 46.9777 2.65557 47.037 2.88435 47.0337C3.85622 47.0222 4.82891 47.0288 5.80078 47.0288C6.75949 47.0288 7.71819 47.0378 8.67607 47.0271C9.45867 47.0181 9.75986 46.7045 9.7722 45.9228C9.77632 45.6487 9.77467 45.3755 9.77385 45.1015C9.77138 44.1214 9.52204 43.8762 8.52959 43.8762C7.63946 43.8762 6.74934 43.8762 5.86003 43.8762ZM5.78638 41.7399C5.78706 41.7399 5.78762 41.7393 5.78762 41.7386C5.78762 41.7379 5.78817 41.7374 5.78885 41.7374C6.74797 41.7374 7.7079 41.7514 8.66702 41.7333C9.45126 41.7185 9.69567 41.4494 9.69979 40.6742C9.70143 40.4133 9.70061 40.1533 9.69979 39.8924C9.69814 39.0168 9.45538 38.7469 8.58884 38.7411C6.69612 38.7296 4.80422 38.7436 2.9115 38.7313C2.62513 38.7296 2.57164 38.8349 2.57575 39.0876C2.58727 39.8554 2.59303 40.624 2.56999 41.3909C2.56094 41.6979 2.67697 41.7497 2.94853 41.7456C3.89448 41.7316 4.84043 41.7398 5.78638 41.7399Z" fill="#040404"/>
<path d="M103.909 48.3658C104.088 48.8298 103.732 49.327 103.235 49.3261C102.728 49.3253 102.227 49.3255 101.726 49.3319C101.507 49.3352 101.455 49.2035 101.394 49.0447C100.842 47.6037 100.281 46.1661 99.7398 44.721C99.6797 44.5614 99.5991 44.5515 99.4715 44.5515C97.936 44.5523 96.4004 44.5597 94.8657 44.5466C94.5768 44.5441 94.6122 44.7021 94.6122 44.8831C94.6138 46.2541 94.6048 47.6251 94.6188 48.9953C94.6212 49.2644 94.5521 49.3409 94.283 49.3327C93.6527 49.3129 93.0215 49.3154 92.392 49.3319C92.1237 49.3393 92.0216 49.2841 92.0225 48.9821C92.0348 44.9794 92.034 40.9767 92.0266 36.974C92.0258 36.7304 92.0677 36.6457 92.3327 36.6465C95.5133 36.6564 98.6939 36.6407 101.874 36.6613C102.66 36.6662 103.399 36.8728 103.826 37.6373C104.075 38.0817 104.104 38.5795 104.109 39.0708C104.122 40.1258 104.128 41.1825 104.106 42.2374C104.092 42.9271 103.997 43.601 103.399 44.0816C103.167 44.2676 102.897 44.3614 102.626 44.4355C102.411 44.4939 102.409 44.5745 102.479 44.7507C102.961 45.9538 103.436 47.1594 103.909 48.3658ZM97.7541 42.3518C98.7128 42.3518 99.6723 42.3601 100.631 42.3494C101.329 42.3411 101.59 42.0836 101.614 41.389C101.63 40.8961 101.628 40.4023 101.614 39.9094C101.593 39.1457 101.368 38.9062 100.592 38.8988C98.6881 38.8799 96.7839 38.8914 94.8796 38.875C94.6089 38.8725 94.6081 39.0009 94.6089 39.1992C94.6155 40.1308 94.6229 41.0623 94.6048 41.9939C94.599 42.2753 94.6616 42.3675 94.9595 42.3609C95.891 42.3395 96.8226 42.3526 97.7541 42.3518Z" fill="#040404"/>
<path d="M52.4933 42.0197C52.4846 42.0199 52.4778 42.0269 52.4778 42.0357C52.4779 43.7437 52.495 45.4518 52.4671 47.159C52.4589 47.6742 52.3182 48.1909 51.9931 48.6172C51.5594 49.185 50.911 49.278 50.2658 49.3068C49.4857 49.3422 48.7031 49.3249 47.9221 49.3258C46.1265 49.3282 44.3301 49.3323 42.5344 49.3241C42.0004 49.3216 41.4688 49.283 40.9676 49.06C40.1735 48.7061 40.0525 47.9679 39.9208 47.2405C39.8797 47.0133 39.8797 46.7763 39.8797 46.5434C39.8772 43.3908 39.8855 40.2374 39.8682 37.0848C39.8665 36.7128 39.9727 36.628 40.3233 36.6445C40.9248 36.6741 41.5305 36.6708 42.132 36.6445C42.4423 36.6305 42.5205 36.7194 42.5196 37.0296C42.5073 39.9905 42.5131 42.9514 42.5114 45.9123C42.5114 46.852 42.5904 46.9327 43.5475 46.9327C45.3711 46.9327 47.1947 46.9327 49.0174 46.9327C49.7507 46.9327 49.8873 46.7961 49.8873 46.0769C49.8856 43.0748 49.8905 40.0728 49.8757 37.0708C49.8741 36.7358 49.9399 36.6248 50.2971 36.6461C50.8978 36.6815 51.5043 36.6791 52.105 36.6429C52.4745 36.6206 52.519 36.7638 52.5157 37.0839C52.5001 38.7241 52.5082 40.3642 52.5083 42.0044C52.5083 42.0126 52.5016 42.0195 52.4933 42.0197Z" fill="#040404"/>
<path d="M86.3175 42.1171C86.311 42.1172 86.3054 42.1225 86.3054 42.129C86.3055 43.8252 86.3259 45.5214 86.298 47.2168C86.2807 48.2521 85.824 48.9096 85.0134 49.1639C84.6489 49.2782 84.2646 49.3268 83.8786 49.3268C81.3144 49.3284 78.7502 49.3301 76.1859 49.3251C75.7473 49.3243 75.3112 49.2642 74.8964 49.1128C74.0546 48.8051 73.9048 48.0562 73.7797 47.3057C73.7303 47.0094 73.7163 46.705 73.7155 46.4046C73.7114 43.3063 73.7213 40.2072 73.7032 37.1089C73.7007 36.7172 73.8192 36.6291 74.1837 36.648C74.7581 36.6785 75.3367 36.6777 75.9102 36.6464C76.2649 36.6275 76.3308 36.7517 76.3291 37.0825C76.3168 40.0714 76.3217 43.0602 76.3233 46.0491C76.3233 46.7848 76.4772 46.9346 77.2179 46.9346C79.1238 46.9354 81.0297 46.9362 82.9355 46.9362C83.5437 46.9362 83.7206 46.7617 83.7206 46.1594C83.7206 43.1154 83.7255 40.0722 83.7116 37.0282C83.7099 36.7188 83.779 36.6332 84.0917 36.6464C84.7213 36.6735 85.3533 36.6711 85.9836 36.6456C86.2873 36.6332 86.3359 36.7394 86.3342 37.0159C86.3211 38.7126 86.3276 40.4092 86.3276 42.1059C86.3276 42.1119 86.3235 42.1169 86.3175 42.1171Z" fill="#040404"/>
<path d="M118.541 36.6553C119.339 36.6565 119.779 37.5859 119.269 38.1994C118.293 39.3745 117.317 40.5488 116.339 41.7231C115.886 42.2671 115.442 42.8193 114.968 43.3459C114.785 43.5509 114.74 43.7607 114.741 44.0166C114.746 45.6617 114.733 47.3075 114.754 48.9525C114.758 49.28 114.653 49.3409 114.36 49.3319C113.743 49.3121 113.124 49.3072 112.509 49.3335C112.173 49.3483 112.069 49.2595 112.073 48.9089C112.095 47.291 112.08 45.6732 112.091 44.0553C112.092 43.7656 112.016 43.5476 111.824 43.318C110.435 41.6598 109.067 39.9843 107.687 38.3171C107.519 38.114 107.349 37.9122 107.175 37.7063C106.822 37.2901 107.116 36.6531 107.662 36.6531C108.211 36.6531 108.766 36.7099 109.305 36.6383C109.95 36.5527 110.116 37.0712 110.392 37.411C111.443 38.6981 112.461 40.0123 113.483 41.3232C113.609 41.4853 113.651 41.4631 113.768 41.3133C114.513 40.3546 115.271 39.405 116.027 38.4537C116.459 37.9097 116.894 37.3691 117.329 36.8276C117.394 36.7453 117.443 36.6515 117.581 36.6515C117.9 36.6537 118.219 36.6548 118.541 36.6553Z" fill="#040404"/>
<path d="M25.4879 42.9917C25.4879 41.0052 25.4953 39.0179 25.4805 37.0313C25.4781 36.7268 25.5472 36.633 25.8607 36.6462C26.4763 36.6734 27.0943 36.6742 27.7098 36.6462C28.0472 36.6306 28.1427 36.7211 28.141 37.07C28.1262 40.2078 28.1402 43.3456 28.1221 46.4842C28.1196 46.8735 28.234 46.9467 28.5961 46.9442C31.0904 46.9278 33.5847 46.9409 36.079 46.9253C36.4254 46.9228 36.5176 47.0216 36.4986 47.3582C36.4682 47.9046 36.4822 48.4543 36.4937 49.0024C36.4986 49.2344 36.4616 49.334 36.1843 49.3332C32.7173 49.3225 29.2503 49.3241 25.7825 49.3356C25.4995 49.3365 25.483 49.2196 25.4838 48.9949C25.4904 46.9928 25.4871 44.9923 25.4879 42.9917Z" fill="#040404"/>
<path d="M70.8557 49.1856C70.906 49.2413 70.8388 49.3299 70.7638 49.3278C69.8068 49.3003 68.8818 49.3895 67.9582 49.2712C67.3879 49.1988 67.0012 48.8416 66.6465 48.4335C64.4921 45.9548 62.3418 43.4729 60.1832 40.9968C58.9826 39.6192 57.7704 38.2523 56.5648 36.8797C56.4864 36.7908 56.5776 36.6489 56.696 36.6547C57.724 36.705 58.702 36.5088 59.6656 36.8204C60.1676 36.9826 60.4622 37.3808 60.7848 37.7462C62.5878 39.7887 64.3834 41.8378 66.184 43.8836C67.7401 45.652 69.2988 47.4172 70.8557 49.1856Z" fill="#040404"/>
<path d="M17.1764 42.97C17.1764 40.9826 17.183 38.9953 17.169 37.0087C17.1665 36.7183 17.2414 36.6401 17.5286 36.6491C18.1861 36.6705 18.8445 36.6648 19.502 36.6491C19.7341 36.6434 19.8048 36.7092 19.804 36.9454C19.7982 40.9744 19.7982 45.0034 19.8065 49.0325C19.8073 49.2686 19.739 49.3369 19.5061 49.332C18.8486 49.318 18.1903 49.3139 17.5327 49.3337C17.248 49.3427 17.1674 49.2645 17.169 48.9716C17.183 46.9719 17.1764 44.9713 17.1764 42.97Z" fill="#040404"/>
<path d="M126.566 33.2148C126.57 34.8483 125.221 36.1938 123.559 36.2135C121.971 36.2324 120.544 34.8425 120.536 33.2699C120.528 31.6422 121.885 30.2679 123.523 30.2473C125.168 30.2259 126.562 31.5862 126.566 33.2148ZM124.049 35.5154C124.493 35.4245 124.377 34.4539 124.136 34.0706C124.107 34.0245 124.089 33.9702 124.057 33.9266C123.813 33.5843 123.518 33.3596 123.058 33.423C122.883 33.4468 122.822 33.4938 122.83 33.6699C122.842 33.9571 122.818 34.2467 122.837 34.5331C122.854 34.7808 122.722 34.7857 122.534 34.7915C122.329 34.7973 122.245 34.7545 122.248 34.5232C122.262 33.6188 122.263 32.7136 122.248 31.8092C122.244 31.5763 122.329 31.5418 122.529 31.5459C123.022 31.5574 123.516 31.5442 124.01 31.55C124.551 31.5558 124.902 31.81 125.023 32.2684C125.122 32.6428 124.95 32.9654 124.477 33.2485C124.349 33.3259 124.317 33.3777 124.433 33.488C124.723 33.7637 124.908 34.1159 125.117 34.4508C125.282 34.715 125.447 34.7718 125.628 34.4549C125.988 33.8205 126.229 32.7177 125.398 31.7524C124.199 30.3601 122.241 30.7189 121.453 32.1079C120.841 33.1852 121.159 34.4492 122.114 35.1396C122.627 35.5096 123.36 35.6564 124.049 35.5154ZM123.51 32.8988C123.514 32.8988 123.517 32.8956 123.517 32.8918C123.517 32.8879 123.52 32.8848 123.524 32.8848C123.671 32.8852 123.82 32.8985 123.965 32.8815C124.219 32.851 124.397 32.7284 124.41 32.4445C124.421 32.1688 124.212 32.0923 124.015 32.0684C123.692 32.0298 123.364 32.0388 123.038 32.0298C122.934 32.0265 122.865 32.0578 122.832 32.1763C122.693 32.6782 122.849 32.8988 123.354 32.8988C123.406 32.8988 123.458 32.8988 123.51 32.8988Z" fill="#040404"/>
<path d="M28.5479 55.9071C28.5347 55.9105 28.5249 55.9222 28.5241 55.9358C28.476 56.8252 28.4287 57.7155 28.3781 58.6049C28.3583 58.9472 28.3007 59.2896 28.3147 59.6294C28.3303 60.008 28.0843 59.9117 27.8818 59.9232C27.5913 59.9397 27.6819 59.7479 27.6926 59.5916C27.788 58.1556 27.8777 56.7196 27.9789 55.2844C27.9896 55.1347 27.8917 54.8639 28.188 54.8927C28.4472 54.9174 28.7862 54.7002 28.9368 55.1561C29.3006 56.2555 29.7128 57.3384 30.0363 58.4518C30.0816 58.6105 30.2815 58.6398 30.3351 58.4837C30.3773 58.361 30.3989 58.2364 30.4313 58.121C30.7267 57.0685 31.1554 56.0637 31.5175 55.0351C31.6352 54.7002 32.0006 54.9355 32.2474 54.8886C32.4738 54.8458 32.4153 55.0548 32.4227 55.1733C32.5207 56.6768 32.6095 58.1819 32.7108 59.6854C32.7231 59.8705 32.6704 59.9454 32.491 59.9224C32.3141 59.8993 32.0639 60.0368 32.0491 59.678C32.0228 59.0213 31.9685 58.3654 31.9298 57.7087C31.9017 57.2333 31.3388 57.1875 31.1818 57.6372C30.9341 58.3457 30.679 59.0517 30.437 59.7627C30.3679 59.966 30.2132 59.8648 30.0947 59.8862C29.9457 59.9133 29.8717 59.8714 29.8141 59.6928C29.4561 58.5901 29.0389 57.5071 28.7467 56.3838C28.7064 56.2278 28.6411 56.0792 28.5855 55.9274C28.5798 55.9119 28.5639 55.9029 28.5479 55.9071Z" fill="#040404"/>
<path d="M57.8998 49.3234C57.8999 49.3224 57.899 49.3216 57.8979 49.3216C57.5694 49.3216 57.2417 49.3265 56.9132 49.3183C56.8235 49.3166 56.6976 49.3462 56.6548 49.2409C56.6087 49.1265 56.7033 49.0344 56.7716 48.9537C57.2176 48.4196 57.6735 47.893 58.1163 47.3556C58.7664 46.5681 59.4042 45.7706 60.0543 44.9831C60.3974 44.5675 60.4122 44.5651 60.7875 44.9559C61.1191 45.3016 61.4088 45.6867 61.7758 45.9978C61.9297 46.1286 61.947 46.2767 61.8236 46.4282C61.1948 47.2017 60.6649 48.0559 59.9736 48.7768C59.4683 49.3034 58.796 49.3718 58.1048 49.3273C58.0375 49.3233 57.9694 49.3264 57.9022 49.3265C57.9007 49.3265 57.8997 49.3249 57.8998 49.3234Z" fill="#F8CD10"/>
<path d="M73.783 56.0208C73.751 55.9569 73.6488 55.9987 73.6488 56.0702C73.6483 57.2843 73.6437 58.4371 73.6538 59.5907C73.6554 59.8203 73.6324 59.9314 73.3534 59.9346C73.0802 59.9379 73.0415 59.8417 73.0424 59.6055C73.0514 58.1662 73.0424 56.7269 73.0531 55.2876C73.0539 55.1559 72.9247 54.905 73.1831 54.8967C73.4184 54.8901 73.718 54.742 73.8908 55.0506C74.5705 56.2644 75.4157 57.3811 76.0123 58.6443C76.0453 58.7133 76.1547 58.6738 76.1548 58.5973C76.1551 58.2004 76.156 57.8359 76.1546 57.4708C76.1514 56.703 76.1522 55.9361 76.1357 55.1683C76.1308 54.9313 76.2098 54.8737 76.4443 54.8729C76.692 54.872 76.7743 54.928 76.7727 55.188C76.7611 56.6413 76.771 58.0938 76.7636 59.547C76.7628 59.673 76.8673 59.9009 76.641 59.9108C76.4081 59.9207 76.1324 60.04 75.9547 59.7199C75.2626 58.469 74.4265 57.3013 73.783 56.0208Z" fill="#040404"/>
<path d="M64.4166 57.4292C64.4153 57.4295 64.4149 57.4305 64.4149 57.4318C64.4148 58.1576 64.4034 58.8834 64.4215 59.6084C64.428 59.8611 64.3622 59.9516 64.1054 59.9294C63.8948 59.9113 63.708 59.9557 63.7285 59.6183C63.7623 59.0587 63.7203 58.4942 63.745 57.933C63.7573 57.6491 63.6561 57.5808 63.3953 57.589C62.8612 57.6046 62.3254 57.6096 61.7914 57.589C61.4844 57.5775 61.3544 57.6441 61.375 57.9898C61.4079 58.5362 61.3692 59.0859 61.3857 59.634C61.3931 59.8751 61.3149 59.9442 61.0828 59.9294C60.8804 59.9162 60.7183 59.9442 60.7207 59.6414C60.7347 58.1469 60.7331 56.6533 60.7224 55.1589C60.7207 54.9022 60.8277 54.8684 61.0433 54.8766C61.2507 54.8841 61.4079 54.8668 61.3914 55.1671C61.3643 55.6593 61.3914 56.1538 61.3783 56.6468C61.3725 56.8624 61.4128 56.9735 61.6655 56.9669C62.2547 56.9512 62.8447 56.9537 63.4339 56.966C63.666 56.971 63.7508 56.8895 63.745 56.6583C63.7335 56.1785 63.7532 55.6979 63.7343 55.219C63.7244 54.9573 63.7936 54.8651 64.0717 54.8758C64.3202 54.8857 64.4346 54.9186 64.4264 55.2083C64.405 55.9475 64.419 56.6875 64.419 57.4268C64.419 57.4278 64.4177 57.429 64.4166 57.4292Z" fill="#040404"/>
<path d="M69.5558 36.742C69.6353 36.8203 69.5801 36.961 69.5034 37.042C68.4739 38.1324 67.5967 39.3511 66.6083 40.4761C66.4404 40.667 66.2997 40.7863 66.0808 40.5411C65.7739 40.1979 65.4562 39.8638 65.1386 39.5297C64.9147 39.2935 64.881 39.0771 65.1262 38.8179C65.6537 38.2583 65.9903 37.5325 66.6314 37.0717C66.8996 36.8791 67.1934 36.7219 67.5325 36.7137C68.1357 36.6997 68.7389 36.7005 69.3421 36.7005C69.4158 36.7016 69.5036 36.6905 69.5558 36.742Z" fill="#F8CD10"/>
<path d="M83.1791 58.5211C83.1791 58.768 83.1536 59.0182 83.1857 59.2601C83.2334 59.6197 83.0836 59.7884 82.7429 59.8501C82.0352 59.9785 81.3192 60.0608 80.6288 59.8271C79.6446 59.4938 79.0973 58.6265 79.1056 57.4505C79.113 56.3494 79.5631 55.4845 80.6066 55.0327C81.3234 54.7225 82.0821 54.7925 82.8269 54.9537C83.1009 55.013 82.9783 55.2196 82.947 55.3866C82.9092 55.5858 82.831 55.608 82.6343 55.5372C81.6114 55.1694 80.6469 55.4253 80.1178 56.2243C79.5936 57.0168 79.6865 58.5812 80.6469 59.1523C81.1777 59.4683 81.7677 59.4609 82.3578 59.3317C82.4853 59.3037 82.5322 59.2223 82.5248 59.0922C82.5166 58.9416 82.5232 58.791 82.5224 58.6396C82.5207 57.857 82.5215 57.8447 81.7612 57.8192C81.5406 57.8118 81.525 57.727 81.5274 57.5509C81.5299 57.3756 81.5456 57.2719 81.7686 57.2826C82.1512 57.3016 82.5364 57.2999 82.9198 57.2818C83.1544 57.2711 83.1914 57.3756 83.1824 57.5748C83.1684 57.8899 83.1783 58.2051 83.1791 58.5211Z" fill="#040404"/>
<path d="M41.8798 55.2675C41.8668 55.9249 42.7037 56.2142 43.1137 55.7002C43.2342 55.5491 43.3539 55.3992 43.4738 55.2494C43.8205 54.8156 44.1133 55.4541 43.7607 55.8832C43.513 56.1846 43.2638 56.4817 43.0047 56.7702C42.8105 56.9866 42.8393 57.1043 42.9874 57.3199C43.3139 57.7933 43.6327 58.2719 43.9516 58.7546C44.2962 59.2762 43.9321 59.9293 43.5914 59.4052C43.2639 58.9015 42.9389 58.3963 42.5982 57.9017C42.5118 57.7766 42.4649 57.4853 42.3167 57.5635C42.1127 57.6721 41.8798 57.8556 41.8781 58.1551C41.8748 58.6209 41.8666 59.0875 41.8814 59.5525C41.8896 59.8067 41.865 59.9442 41.5415 59.9384C41.2387 59.9335 41.191 59.8339 41.1934 59.5607C41.2074 58.1222 41.2083 56.6829 41.1934 55.2445C41.191 54.9647 41.2535 54.8799 41.5473 54.8725C41.8814 54.8635 41.8847 55.0206 41.8798 55.2675Z" fill="#040404"/>
<path d="M68.225 55.187C68.3579 54.774 69.1103 54.7165 69.24 55.1305C69.7066 56.6126 70.1995 58.0873 70.6793 59.5652C70.7163 59.6788 70.8677 59.8779 70.685 59.901C70.4834 59.9265 70.1723 60.0935 70.0431 59.7545C69.9024 59.3858 69.7609 59.013 69.6695 58.6304C69.6062 58.3654 69.4679 58.3284 69.2392 58.3366C68.8697 58.3506 68.4994 58.3514 68.1299 58.3358C67.9291 58.3267 67.8328 58.4016 67.7777 58.5876C67.6649 58.9653 67.5431 59.3414 67.4115 59.7133C67.3506 59.8862 66.8848 60.017 66.7498 59.9125C66.6634 59.845 66.7136 59.7619 66.7375 59.6887C67.0741 58.6649 67.4106 57.642 67.7513 56.62C67.8978 56.1814 68.0871 55.7534 68.1924 55.3049C68.2024 55.263 68.2132 55.2236 68.225 55.187ZM69.2548 57.2386C69.1045 56.7863 68.3416 56.8008 68.1836 57.2504C68.1373 57.382 68.0899 57.5131 68.041 57.6437C67.9916 57.7754 68.0583 57.8099 68.1792 57.8091C68.3958 57.8074 68.6124 57.8072 68.8312 57.8075C69.131 57.8079 69.3493 57.5231 69.2548 57.2386Z" fill="#040404"/>
<path d="M36.387 55.2171C36.541 54.7715 37.2997 54.7966 37.4432 55.2457C37.9048 56.685 38.3862 58.1169 38.852 59.5545C38.889 59.6681 39.0586 59.8779 38.824 59.9092C38.6208 59.9364 38.2793 60.0853 38.1978 59.7339C38.1073 59.3447 37.8982 58.9982 37.839 58.6057C37.8069 58.3909 37.6974 58.3399 37.5057 58.3424C37.0951 58.3489 36.6844 58.3506 36.2746 58.3399C36.0755 58.335 35.9858 58.4156 35.9315 58.6041C35.822 58.9826 35.6706 59.3496 35.5644 59.729C35.455 60.1215 35.1398 59.9265 34.9604 59.9059C34.7358 59.8796 34.9193 59.673 34.9563 59.5586C35.4278 58.1218 35.9175 56.6916 36.3758 55.2507C36.3795 55.2392 36.3832 55.2281 36.387 55.2171ZM37.509 57.489C37.3126 56.8887 36.4692 56.8924 36.2652 57.4902C36.2557 57.5178 36.2463 57.5454 36.2368 57.5729C36.1718 57.7622 36.1997 57.8182 36.3972 57.8124C36.6844 57.8034 36.9749 57.7877 37.2605 57.8157C37.5559 57.8445 37.5839 57.7194 37.509 57.489Z" fill="#040404"/>
<path d="M46.7308 57.4117C46.7316 56.685 46.7423 55.9584 46.725 55.2326C46.7192 54.975 46.7736 54.8672 47.0566 54.8754C47.7413 54.8944 48.4276 54.8919 49.1123 54.8787C49.3468 54.8746 49.411 54.947 49.4176 55.1807C49.425 55.4391 49.2933 55.4334 49.1148 55.4309C48.635 55.426 48.1544 55.4408 47.6755 55.4227C47.436 55.4136 47.3669 55.4951 47.3792 55.7247C47.3965 56.053 47.3949 56.383 47.3801 56.7114C47.3702 56.9237 47.4352 57.0002 47.6566 56.992C48.0672 56.9755 48.4786 56.9895 48.8901 56.9871C49.109 56.9862 49.304 56.9385 49.3049 57.3014C49.3057 57.694 49.0662 57.5853 48.8728 57.5894C48.4622 57.5977 48.0507 57.596 47.6393 57.5886C47.4541 57.5853 47.3702 57.6339 47.3792 57.8437C47.3965 58.2544 47.3957 58.6667 47.3792 59.0773C47.3702 59.3011 47.4508 59.3571 47.664 59.3513C48.184 59.3365 48.7058 59.3538 49.2267 59.3406C49.4406 59.3357 49.5517 59.3694 49.541 59.6237C49.5328 59.8401 49.4982 59.9405 49.2473 59.9348C48.5075 59.9175 47.7668 59.9175 47.027 59.9307C46.795 59.9348 46.7209 59.8706 46.725 59.6336C46.739 58.8921 46.7299 58.1515 46.7308 57.4117Z" fill="#040404"/>
<path d="M85.6448 57.3509C85.6448 56.6382 85.6547 55.9248 85.6399 55.2129C85.635 54.9743 85.6736 54.8706 85.9477 54.878C86.6463 54.8978 87.3458 54.8912 88.0444 54.8772C88.2658 54.8722 88.3234 54.9488 88.3275 55.1586C88.3316 55.3775 88.2584 55.4409 88.0444 55.4335C87.5927 55.4178 87.1392 55.4417 86.6875 55.4228C86.4159 55.4113 86.2768 55.4705 86.313 55.7783C86.3583 56.1683 86.146 56.6917 86.4011 56.918C86.6208 57.1122 87.1302 56.9781 87.512 56.9872C87.6355 56.9905 87.7589 56.9946 87.8823 56.9863C88.0938 56.9715 88.2337 56.9773 88.2428 57.2727C88.2526 57.5821 88.1119 57.6011 87.8799 57.5961C87.4684 57.5863 87.057 57.6052 86.6463 57.5871C86.4044 57.5764 86.2974 57.6307 86.3139 57.9006C86.3369 58.2833 86.332 58.6684 86.3147 59.0519C86.304 59.293 86.3994 59.3555 86.6257 59.3498C87.1327 59.3358 87.6404 59.3547 88.1473 59.3399C88.3613 59.3341 88.4394 59.3959 88.4386 59.6148C88.4378 59.8295 88.4016 59.9365 88.1465 59.9308C87.4207 59.9135 86.6932 59.9127 85.9674 59.9316C85.6794 59.939 85.6251 59.8279 85.6399 59.572C85.6613 59.2033 85.6448 58.8322 85.6448 58.4618C85.6448 58.0907 85.6448 57.7212 85.6448 57.3509Z" fill="#040404"/>
<path d="M54.6475 57.5005C54.7042 56.4373 55.0194 55.5864 55.9551 55.091C56.6974 54.6985 57.4816 54.7372 58.2667 54.9388C58.5094 55.0013 58.358 55.1676 58.3358 55.3033C58.3053 55.4893 58.2436 55.5659 58.0387 55.4869C57.5359 55.2926 57.0331 55.2926 56.5196 55.4836C55.4885 55.8679 55.2153 57.0463 55.4103 57.9531C55.6662 59.1423 56.6472 59.6846 57.8799 59.3472C58.0865 59.2912 58.2798 59.1645 58.3638 59.5266C58.4115 59.7331 58.3638 59.8212 58.1984 59.8557C57.1804 60.0713 56.1871 60.1339 55.3511 59.3348C54.8079 58.8139 54.701 58.1358 54.6475 57.5005Z" fill="#040404"/>
<path d="M92.9568 56.6335C92.944 56.6335 92.9337 56.6438 92.9337 56.6566C92.9338 57.1558 92.9369 57.655 92.9321 58.1543C92.9304 58.3616 92.8811 58.5122 92.607 58.5089C92.3067 58.5057 92.3701 58.3098 92.3668 58.1444C92.3437 57.1437 92.3322 56.1431 92.2993 55.1432C92.2919 54.9128 92.3693 54.8503 92.5791 54.8815C92.7585 54.9087 93.0037 54.7894 92.9855 55.1531C92.9612 55.6375 92.9792 56.1244 92.9798 56.6105C92.9798 56.6232 92.9695 56.6335 92.9568 56.6335Z" fill="#040404"/>
<path d="M92.2159 59.4809C92.2373 59.294 92.313 59.0842 92.6126 59.071C92.9286 59.057 93.0537 59.2496 93.0619 59.5302C93.0701 59.8174 92.9253 60.0067 92.629 60.0001C92.3574 59.9944 92.2126 59.8232 92.2159 59.4809Z" fill="#040404"/>
<path d="M62.7175 11.8681C62.7177 11.872 62.7144 11.8757 62.7105 11.8757C61.0399 11.8757 59.3701 11.8692 57.7002 11.8823C57.4172 11.8848 57.3308 11.8148 57.3324 11.5194C57.3447 9.20289 57.3423 6.88554 57.3316 4.56901C57.3299 4.28922 57.3933 4.20364 57.6904 4.20611C60.5418 4.22668 63.3941 4.19294 66.2447 4.24972C68.1752 4.2884 70.3379 5.70465 70.988 7.66649C71.6587 9.68841 71.4628 11.6223 70.2177 13.3652C69.3438 14.5889 68.0765 15.2259 66.5672 15.2423C64.1956 15.2678 61.8239 15.2407 59.4523 15.2184C59.1453 15.216 59.0556 15.2892 59.0589 15.6028C59.0762 17.0009 59.0729 18.3999 59.0622 19.798C59.0597 20.0712 59.1198 20.1774 59.4202 20.1757C62.107 20.1609 64.7938 20.1617 67.4807 20.1584C69.1874 20.156 70.5247 18.9578 70.8489 17.2683C71.0316 16.317 70.774 15.4472 70.5 14.5749C70.4021 14.263 70.4128 14.1445 70.7584 14.0771C71.0629 14.0178 71.3616 13.8919 71.6414 13.7512C71.9508 13.5956 72.0841 13.7207 72.196 13.9923C72.4799 14.6819 72.6503 15.3888 72.6544 16.1426C72.6626 17.7341 72.2602 19.1775 71.1386 20.3469C70.1214 21.4068 68.8188 21.9146 67.3803 21.9244C64.1322 21.9475 60.8833 21.8923 57.6344 21.8784C57.3974 21.8775 57.3324 21.8101 57.3332 21.578C57.3398 18.9866 57.3431 16.396 57.3291 13.8047C57.3275 13.4961 57.4822 13.5249 57.6838 13.5257C60.5632 13.5315 63.4426 13.5315 66.3212 13.538C67.2939 13.5405 68.1078 13.213 68.7447 12.46C68.8936 12.2847 68.9052 12.2173 68.6797 12.1094C68.3373 11.9457 67.9901 11.8576 67.6115 11.8585C65.9825 11.8617 64.3544 11.8601 62.7254 11.8601C62.7209 11.8601 62.7174 11.8636 62.7175 11.8681ZM68.374 10.2511C68.9763 10.3221 69.6363 9.89508 69.6071 9.2893C69.5182 7.44184 67.9572 6.06262 66.2842 5.9902C63.9866 5.88981 61.6816 5.95399 59.3798 5.93671C59.1231 5.93507 59.0581 6.01818 59.0605 6.26588C59.0729 7.4443 59.0786 8.62273 59.0581 9.80033C59.0523 10.1188 59.1494 10.1805 59.4481 10.1805C61.6264 10.1756 63.8063 10.1525 65.983 10.2134C66.7704 10.2346 67.5711 10.1563 68.374 10.2511Z" fill="#040404"/>
</svg>
