<svg width="74" height="75" viewBox="0 0 74 75" fill="none" xmlns="http://www.w3.org/2000/svg">
<path d="M33.5044 7.6664C31.1362 7.66109 28.7673 7.70027 26.4011 7.63718C24.0117 7.57342 21.7345 7.0003 19.6684 5.75445C18.4153 4.9987 17.3786 4.01981 16.7949 2.63648C16.7265 2.47444 16.6647 2.30642 16.6275 2.13442C16.5066 1.56794 16.8991 1.06189 17.4756 1.02736C17.5858 1.02072 17.6967 1.02537 17.8076 1.02537C27.4252 1.02537 37.042 1.0247 46.6596 1.02537C47.246 1.02537 47.8284 0.951653 48.4168 0.966927C52.3423 1.07186 56.0261 2.01289 59.3526 4.15396C63.0337 6.52281 65.708 9.73973 67.3185 13.814C68.64 17.1571 68.9801 20.6191 68.4807 24.176C68.0762 27.0575 67.0993 29.7226 65.5307 32.1691C63.8618 34.7724 61.6962 36.873 59.0464 38.4675C56.5248 39.985 53.7907 40.8676 50.8673 41.1943C49.7304 41.3218 48.5934 41.3072 47.4538 41.3072C35.0364 41.3039 22.619 41.3039 10.2023 41.3072C9.57406 41.3072 9.04544 41.1312 8.6928 40.5853C8.31692 40.0029 8.3136 39.3806 8.61776 38.783C8.91859 38.1926 9.44589 37.919 10.1127 37.919C18.9333 37.9196 27.7539 37.9196 36.5738 37.9196C36.8079 37.9196 36.9053 37.619 36.7171 37.4799C36.2003 37.0976 35.7222 36.726 35.2662 36.3264C34.4241 35.588 33.6485 34.7857 32.9492 33.9124C32.7619 33.6793 32.5653 33.601 32.2751 33.6016C29.276 33.6103 26.2769 33.6076 23.2778 33.6056C22.5347 33.6049 21.9317 33.1965 21.7059 32.553C21.4462 31.8125 21.6541 31.0189 22.2359 30.5713C22.5526 30.3276 22.9146 30.2207 23.3183 30.2213C25.5537 30.2266 27.7897 30.224 30.0251 30.222C30.2871 30.222 30.4132 29.9812 30.3068 29.7418C30.1611 29.4138 30.016 29.0875 29.8823 28.7563C28.6345 25.6722 28.1875 22.4746 28.511 19.1634C28.7613 16.5992 29.4786 14.1779 30.6653 11.8934C30.9808 11.2864 31.4742 10.9789 32.1602 10.9789C34.2408 10.9803 36.3215 10.9809 38.4021 10.9783C38.6379 10.9783 38.8524 11.0155 38.946 11.2632C39.033 11.4923 38.9686 11.6862 38.7953 11.8655C37.2379 13.4819 36.1568 15.3813 35.5498 17.5336C34.9262 19.7458 34.8764 21.9878 35.4057 24.2291C36.0459 26.9407 37.3894 29.2564 39.4567 31.1232C42.3449 33.7311 45.7544 34.9677 49.6328 34.6044C54.8845 34.113 58.6805 31.3915 60.8773 26.6206C62.5854 22.9116 62.4871 19.1149 60.7472 15.4138C59.2483 12.2255 56.8157 9.97416 53.5576 8.63997C51.999 8.00177 50.3666 7.67171 48.6745 7.67968C48.5762 7.67238 48.4772 7.65976 48.3783 7.65976C43.5084 7.6571 38.6385 7.65577 33.768 7.65445C33.6803 7.65445 33.592 7.66242 33.5044 7.6664Z" fill="#E91F27"/>
<path d="M58.904 21.0927C58.9305 26.7064 54.3748 31.1572 48.9962 31.3C43.1873 31.4547 38.4967 26.713 38.5167 21.0921C38.5366 15.5448 43.0784 10.9253 48.5652 10.916C54.323 10.9074 58.8927 15.4047 58.904 21.0927ZM45.2112 18.7777C45.2044 18.7777 45.1989 18.7724 45.1989 18.7656C45.1989 18.7589 45.1934 18.7531 45.1866 18.7531C44.516 18.7531 43.8453 18.7551 43.1747 18.7518C42.9562 18.7505 42.7722 18.8069 42.7052 19.034C42.6354 19.2678 42.749 19.4338 42.9363 19.57C43.9643 20.3164 44.9903 21.0655 46.0151 21.816C46.4255 22.1168 46.4441 22.1991 46.2814 22.6806C45.8822 23.8634 45.4871 25.0468 45.0926 26.2309C45.0209 26.4454 44.9598 26.6725 45.175 26.8399C45.4041 27.0179 45.6046 26.8977 45.8052 26.7536C46.8458 26.0044 47.8938 25.2666 48.9305 24.5115C49.1954 24.3183 49.4086 24.315 49.6743 24.5135C50.7089 25.2885 51.7562 26.047 52.7982 26.812C52.9861 26.9495 53.1834 27.0524 53.4025 26.893C53.625 26.731 53.5725 26.5145 53.5015 26.2927C53.1156 25.0933 52.7351 23.8919 52.3506 22.6926C52.1965 22.2118 52.2085 22.1679 52.6275 21.8664C53.6589 21.1233 54.6876 20.3768 55.7236 19.641C55.9162 19.5042 56.0304 19.3515 55.9733 19.1164C55.9095 18.8554 55.6964 18.8355 55.4752 18.8335C54.1809 18.8235 52.8872 18.8023 51.5929 18.8062C51.2515 18.8076 51.0702 18.6967 50.9673 18.3613C50.5887 17.1254 50.1836 15.8975 49.7945 14.6649C49.7227 14.4391 49.6417 14.2531 49.3548 14.2598C49.0832 14.2658 49.0108 14.4497 48.9418 14.6589C48.538 15.8868 48.1262 17.1121 47.7264 18.3414C47.6275 18.6455 47.4608 18.7923 47.1234 18.7823C46.4867 18.7639 45.8486 18.7775 45.2112 18.7777Z" fill="#E91F27"/>
<path d="M12.3643 65.3822C12.4503 65.2871 12.6068 65.3131 12.6616 65.4291C12.8669 65.8636 13.053 66.2799 13.3418 66.6407C13.4919 66.8279 13.3305 66.9481 13.2203 67.0564C12.62 67.6481 11.9306 68.1143 11.1549 68.443C10.5692 68.6914 9.96288 68.8986 9.33132 68.9717C8.86312 69.0255 8.38298 68.9703 7.90881 68.9836C6.51153 69.0228 5.24708 68.6104 4.12143 67.8108C2.87756 66.9269 1.97704 65.7521 1.40923 64.3329C1.2286 63.8806 1.18676 63.3885 1.0732 62.9177C0.921116 62.2835 1.03468 61.6499 1.00944 61.0184C0.993503 60.6139 1.10773 60.1955 1.21465 59.7971C1.58123 58.433 2.29448 57.2675 3.3172 56.2966C4.46809 55.2035 5.84544 54.6018 7.42335 54.4464C8.63932 54.3268 9.83404 54.451 10.971 54.884C11.6716 55.151 12.3171 55.5601 12.8849 56.0621C14.1607 57.1911 15.0147 58.5665 15.3401 60.2593C15.4988 61.0848 15.453 61.9282 15.5998 62.7523C15.8847 64.3548 16.6883 65.6531 18.0702 66.4946C19.5226 67.3778 21.1231 67.5418 22.7369 66.9661C23.6009 66.6579 24.3394 66.1492 24.9557 65.4141C25.5587 64.6955 25.9897 63.9285 26.1756 63.0273C26.3729 62.0723 26.3636 61.1146 26.084 60.1663C25.639 58.6581 24.6807 57.5783 23.3333 56.8119C21.9938 56.0502 20.5912 55.9951 19.1567 56.4672C18.2476 56.7668 17.5111 57.3392 16.8822 58.0531C16.6232 58.3473 16.6285 58.3467 16.4718 58.0007C16.3834 57.8048 16.2712 57.6188 16.1869 57.4209C16.0773 57.1646 15.9478 56.9567 15.6164 57.041C15.5281 57.0636 15.4597 57.0171 15.4251 56.9514C15.3866 56.879 15.469 56.8385 15.5101 56.794C16.3695 55.8802 17.3311 55.1238 18.561 54.7612C20.123 54.3009 21.6783 54.273 23.2396 54.7651C24.524 55.1702 25.5673 55.9107 26.4227 56.9461C27.3657 58.0877 27.9255 59.3714 28.0955 60.853C28.2636 62.3167 28.0325 63.6987 27.4069 65.0116C26.9918 65.8823 26.3755 66.6167 25.6656 67.2702C24.6728 68.1847 23.4913 68.7093 22.1684 68.8986C21.0056 69.0646 19.8447 69.0567 18.6998 68.7153C17.6253 68.3952 16.6796 67.8659 15.9033 67.0584C14.5452 65.6458 13.7516 63.9769 13.6799 61.9972C13.638 60.8317 13.4242 59.722 12.7807 58.7152C11.2665 56.3464 8.33118 55.495 5.86669 56.7322C3.83852 57.7503 2.58337 60.1158 2.86827 62.3838C3.17641 64.835 4.76826 66.6832 7.07004 67.144C9.14736 67.5604 10.9438 67.0046 12.3643 65.3822Z" fill="#050607"/>
<path d="M58.2761 61.835C56.307 61.8356 54.3373 61.8363 52.3682 61.8343C52.1922 61.8343 52.0415 61.817 52.0587 62.082C52.1823 63.9315 52.9015 65.4663 54.4741 66.5096C56.0042 67.525 57.6545 67.533 59.3406 66.9552C60.6595 66.5029 61.5826 65.5838 62.2952 64.4163C62.5941 63.9269 62.5004 64.0119 62.9713 64.2377C63.2602 64.3758 63.5298 64.5551 63.8227 64.684C64.0418 64.7802 64.0279 64.8885 63.9329 65.0645C62.6578 67.4194 60.7359 68.7981 58.0217 68.9621C56.4113 69.0597 54.8466 68.8651 53.4759 67.9361C51.5812 66.6524 50.52 64.8321 50.257 62.5688C50.004 60.3919 50.6136 58.448 52.0262 56.7785C53.539 54.99 55.518 54.302 57.8198 54.4262C61.4073 54.6195 64.1487 57.2978 64.4688 60.9298C64.5485 61.835 64.5485 61.835 63.6527 61.835C61.8602 61.8343 60.0678 61.8343 58.2761 61.835ZM57.3716 60.2942C57.3719 60.2942 57.3722 60.2948 57.3722 60.2951C57.3722 60.2955 57.3725 60.2956 57.3729 60.2956C58.9771 60.2956 60.5814 60.2936 62.1863 60.2976C62.4048 60.2982 62.5429 60.2903 62.4619 59.9967C62.0103 58.3697 61.0607 57.169 59.4668 56.5553C57.6976 55.874 55.9763 55.9663 54.3658 57.0368C53.2999 57.7454 52.7228 58.7993 52.331 59.9808C52.2507 60.2225 52.2746 60.3029 52.5588 60.3002C54.1624 60.2876 55.7673 60.2942 57.3716 60.2942Z" fill="#E91F27"/>
<path d="M14.3228 17.6629C16.4128 17.6629 18.5027 17.6629 20.5926 17.6629C21.3969 17.6629 22.0112 18.052 22.2403 18.7068C22.5092 19.4745 22.3014 20.2449 21.6804 20.7357C21.4022 20.9555 21.0695 21.0438 20.7195 21.0445C16.44 21.0471 12.1605 21.0504 7.88104 21.0451C6.96656 21.0438 6.29981 20.3133 6.29981 19.351C6.29914 18.3774 6.96789 17.6688 7.92022 17.6655C10.0546 17.6576 12.1891 17.6629 14.3228 17.6629Z" fill="#E91F27"/>
<path d="M36.3265 64.5497C36.3788 64.6618 36.5421 64.6543 36.5934 64.5417C37.1104 63.4054 37.6062 62.3176 38.1004 61.2291C39.0421 59.1571 39.9844 57.0851 40.9221 55.0112C40.9998 54.8392 41.0994 54.7535 41.2974 54.7601C41.7503 54.7747 42.2045 54.7854 42.6574 54.7694C42.9277 54.7601 42.9516 54.8299 42.8441 55.0616C42.1096 56.6462 41.3844 58.236 40.6572 59.8246C39.3827 62.6078 38.1097 65.3917 36.8352 68.1757C36.8027 68.2461 36.7702 68.3165 36.7376 68.3862C36.6745 68.521 36.6041 68.6392 36.4235 68.6319C36.2502 68.6253 36.215 68.4885 36.1612 68.3716C35.6571 67.2771 35.1577 66.1814 34.6523 65.0876C33.2013 61.9477 31.7482 58.8085 30.2971 55.6686C30.1909 55.4382 30.0979 55.2011 29.9917 54.9706C29.9266 54.8292 29.9584 54.7634 30.1178 54.7641C30.6265 54.7674 31.1359 54.7754 31.6446 54.7688C31.8578 54.7661 31.889 54.9295 31.9508 55.0636C32.678 56.6395 33.4012 58.2174 34.1277 59.7934C34.8589 61.3799 35.5927 62.9644 36.3265 64.5497Z" fill="#E91F27"/>
<path d="M71.1775 62.4537C71.1781 62.4539 71.1784 62.4544 71.1784 62.4551C71.1784 64.3912 71.1718 66.3273 71.1857 68.2627C71.1877 68.5596 71.1007 68.6506 70.8132 68.6346C70.4379 68.6134 70.0601 68.6134 69.6849 68.6353C69.4225 68.6506 69.3727 68.5416 69.3747 68.3092C69.3834 67.1696 69.3787 66.03 69.3787 64.8904C69.3787 62.135 69.3754 59.3803 69.384 56.625C69.3847 56.3912 69.3236 56.3155 69.0892 56.3208C68.4696 56.3348 67.85 56.3208 67.2304 56.3314C67.0172 56.3354 66.9315 56.265 66.9388 56.0459C66.9495 55.7364 66.9468 55.4256 66.9295 55.1168C66.9143 54.8505 66.9933 54.7482 67.2835 54.7595C67.8911 54.7841 68.5001 54.7602 69.1084 54.7708C69.3209 54.7741 69.386 54.713 69.384 54.4892C69.3721 52.9844 69.382 51.4795 69.3721 49.9746C69.3701 49.713 69.4232 49.5954 69.7167 49.6167C70.0906 49.6446 70.4692 49.636 70.8444 49.6194C71.104 49.6081 71.1844 49.6977 71.1824 49.96C71.1711 51.4098 71.1777 52.8588 71.1777 54.3086C71.1777 54.7655 71.1777 54.7662 71.6512 54.7668C72.326 54.7675 73.0014 54.7774 73.6761 54.7608C73.9284 54.7542 74.0081 54.8419 73.9982 55.0816C73.9849 55.4017 73.9849 55.7231 73.9962 56.0439C74.0041 56.2564 73.9331 56.3328 73.7119 56.3294C72.9821 56.3188 72.2509 56.3414 71.5218 56.3228C71.2395 56.3155 71.1698 56.4052 71.1711 56.6774C71.1817 58.6024 71.1764 60.5274 71.1764 62.4523C71.1764 62.4528 71.177 62.4535 71.1775 62.4537Z" fill="#E91F27"/>
<path d="M13.4933 69.3618C13.695 68.6619 14.6616 68.3145 15.2152 68.7878C15.221 68.7927 15.2268 68.7976 15.2326 68.8026C15.3674 68.9175 15.3455 69.045 15.3242 69.1725C15.2313 69.7303 15.0812 70.2703 14.8481 70.7896C14.3194 71.9691 13.4647 72.8271 12.3331 73.4381C11.3243 73.9827 10.2405 74.2317 9.11287 74.2981C7.99386 74.3639 6.89145 74.2523 5.7897 74.0039C3.8047 73.557 2.43399 72.3848 1.52948 70.6076C1.20739 69.9754 1.21138 69.9734 1.91267 69.9727C2.27792 69.9727 2.64385 69.984 3.00844 69.9681C3.19505 69.9601 3.29334 70.0504 3.3717 70.1899C3.70176 70.777 4.14339 71.2678 4.69061 71.6543C5.30026 72.0846 5.97432 72.341 6.71613 72.5004C7.4566 72.6598 8.18844 72.673 8.92493 72.6431C10.5938 72.5754 11.9811 71.906 13.0185 70.5811C13.2914 70.2324 13.3718 69.7828 13.4933 69.3618Z" fill="#050607"/>
<path d="M47.2023 61.6871C47.2023 63.8886 47.197 66.0894 47.2089 68.2909C47.2102 68.5705 47.1299 68.6515 46.8576 68.6356C46.4831 68.6137 46.1052 68.619 45.73 68.6376C45.469 68.6502 45.3946 68.5599 45.3953 68.2982C45.4046 65.7541 45.4012 63.2099 45.4006 60.6657C45.4006 58.8075 45.4052 56.9494 45.3926 55.0912C45.3906 54.817 45.4836 54.7525 45.7359 54.7652C46.1225 54.7844 46.5109 54.7871 46.8968 54.7658C47.1531 54.7519 47.2082 54.8422 47.2069 55.0846C47.1983 57.2848 47.2023 59.4856 47.2023 61.6871Z" fill="#E91F27"/>
<path d="M47.7559 50.5497C47.7506 51.4097 47.1323 52.0068 46.2484 52.0048C45.4442 52.0028 44.8219 51.3586 44.8232 50.5291C44.8246 49.7083 45.4754 49.0648 46.3049 49.0654C47.1277 49.0661 47.7606 49.7136 47.7559 50.5497Z" fill="#E91F27"/>
</svg>
