<svg width="109" height="62" viewBox="0 0 109 62" fill="none" xmlns="http://www.w3.org/2000/svg">
<path d="M3.61051 49.9455C3.61066 49.9465 3.60977 49.9468 3.60879 49.9468C2.79732 49.9468 1.98584 49.9543 1.17437 49.9393C1.04871 49.9374 0.813344 50.0293 0.804904 49.7864C0.796465 49.5295 1.03652 49.5623 1.18937 49.5745C2.44123 49.6692 2.53219 48.9425 2.77506 47.9316C2.96542 47.1402 3.0545 46.3253 3.19141 45.5207C3.29925 44.8887 3.40615 44.2567 3.5243 43.6265C3.60682 43.1886 3.72497 42.7572 3.79812 42.3175C4.05505 40.7749 4.28292 39.2277 4.55486 37.6879C4.71521 36.7774 4.91213 35.8744 5.03966 34.9573C5.07155 34.7294 5.16063 34.3534 5.48977 34.314C5.79359 34.2784 5.923 34.5465 6.07022 34.7941C7.54245 37.2687 8.87589 39.8231 10.3369 42.3043C11.0111 43.4493 11.675 44.6083 12.2761 45.7973C12.3295 45.9033 12.3548 46.0571 12.4993 46.0702C12.6662 46.0862 12.6596 45.9061 12.7121 45.8133C13.5317 44.3523 14.3728 42.9017 15.1427 41.4144C15.56 40.608 15.996 39.8025 16.4236 39.0064C16.8081 38.289 17.2282 37.5651 17.6586 36.8599C18.1003 36.136 18.4979 35.3839 18.903 34.6375C19.0061 34.4481 19.1336 34.2877 19.3503 34.3027C19.5941 34.3196 19.7 34.5025 19.7422 34.7425C19.9195 35.76 20.1164 36.7746 20.2917 37.7929C20.5215 39.1189 20.7353 40.4476 20.9603 41.7745C21.1741 43.0311 21.3861 44.2885 21.613 45.5432C21.7855 46.4959 21.8887 47.4618 22.154 48.3976C22.3322 49.024 22.6857 49.3991 23.3703 49.4788C23.796 49.5276 24.2114 49.6617 24.6484 49.6429C24.7365 49.6392 24.8613 49.6261 24.8669 49.7527C24.8716 49.8502 24.774 49.8961 24.6812 49.9271C24.3202 50.0462 23.9367 50.0471 23.5747 50.0237C22.1728 49.9327 20.769 49.9365 19.3662 49.9205C19.1815 49.9186 19.0417 49.8549 18.8964 49.7827C18.8186 49.7442 18.7295 49.6195 18.8448 49.5614C19.4196 49.2707 19.2321 48.708 19.158 48.3358C18.9574 47.324 18.8354 46.299 18.6507 45.2853C18.4876 44.3908 18.3638 43.4793 18.2503 42.5706C18.1556 41.8139 17.9877 41.0665 17.8705 40.3126C17.8546 40.2095 17.848 40.1307 17.7552 40.0885C17.622 40.0285 17.5376 40.1391 17.487 40.2179C17.3041 40.502 17.1288 40.7927 16.9759 41.0937C16.4649 42.0943 15.8994 43.0686 15.3612 44.0532C14.9073 44.884 14.386 45.697 13.9424 46.5353C13.4445 47.4749 12.7937 48.3301 12.3999 49.3251C12.3839 49.3663 12.3473 49.3982 12.3239 49.4366C11.9376 50.0827 11.6647 50.1034 11.2849 49.477C10.7851 48.6536 10.3144 47.8097 9.81361 46.9892C8.86182 45.4279 8.01318 43.8103 7.09234 42.234C6.72569 41.6057 6.39373 40.9615 6.04584 40.3257C6.00364 40.2479 5.93894 40.1504 5.8311 40.1841C5.71482 40.2207 5.68107 40.3501 5.67825 40.4467C5.652 41.15 5.48321 41.8326 5.38287 42.5247C5.22158 43.6415 5.02278 44.7537 4.86993 45.8714C4.73772 46.8392 4.52298 47.7966 4.48922 48.7765C4.47703 49.1413 4.71802 49.3363 5.03779 49.4301C5.39881 49.5351 5.77296 49.5651 6.14993 49.5707C6.28496 49.5726 6.48282 49.6026 6.48845 49.7311C6.49688 49.9243 6.29434 49.9402 6.1368 49.9402C5.29557 49.943 4.4534 49.9411 3.61217 49.9411C3.61045 49.9411 3.61026 49.9438 3.61051 49.9455Z" fill="#3A271A"/>
<path d="M54.5615 19.594C54.6365 18.7819 54.8335 17.8123 55.3398 16.8765C55.8331 15.9669 56.4782 15.1839 57.1271 14.4149C58.1314 13.225 59.298 12.1803 60.5133 11.1995C61.2137 10.634 61.8889 10.0292 62.64 9.53972C63.5609 8.93957 64.3917 8.22315 65.2816 7.5855C66.1312 6.97598 66.9423 6.29894 67.7975 5.69411C68.784 4.99551 69.6626 4.17594 70.5357 3.36012C71.1714 2.7656 71.8588 2.15796 72.1467 1.26056C72.2198 1.03269 72.2479 0.817013 72.2554 0.586333C72.2601 0.455052 72.1701 0.259068 72.3211 0.207493C72.5218 0.138101 72.5508 0.382847 72.623 0.496312C73.3516 1.64502 73.4754 2.88188 73.1275 4.18063C72.6765 5.86103 71.6365 7.1804 70.4897 8.4257C68.2551 10.8507 65.6173 12.8049 63.0057 14.7882C61.0918 16.2426 59.1348 17.6445 57.3869 19.3052C56.8552 19.8106 56.3498 20.3442 55.9756 20.9865C55.7449 21.3822 55.5602 21.792 55.594 22.2646C55.6015 22.3668 55.6099 22.4672 55.503 22.4972C55.3642 22.5356 55.3351 22.4043 55.277 22.3153C54.7753 21.5538 54.5868 20.7043 54.5615 19.594Z" fill="#BA8E36"/>
<path d="M51.8347 22.3744C51.7605 22.4825 51.649 22.3468 51.6417 22.2159C51.5758 21.0382 50.7699 20.2411 49.9799 19.4581C48.2779 17.7702 46.3237 16.3861 44.4201 14.943C42.0186 13.1219 39.6012 11.3187 37.4566 9.18816C36.7448 8.48112 36.0856 7.73094 35.4649 6.93762C34.7175 5.98115 34.107 4.95715 33.9561 3.76155C33.8445 2.88103 33.701 1.93956 34.2571 1.10498C34.4024 0.887431 34.378 0.587359 34.5787 0.3895C34.6425 0.326672 34.679 0.219772 34.7981 0.262907C34.8938 0.297603 34.8741 0.382936 34.8722 0.459829C34.8544 1.13874 35.1648 1.69012 35.5624 2.20493C36.5789 3.52337 37.8945 4.52392 39.1801 5.54792C40.2538 6.40312 41.3706 7.203 42.4725 8.02351C43.5349 8.81495 44.6124 9.58763 45.6635 10.3941C46.2928 10.877 46.9032 11.3871 47.4874 11.9235C48.5367 12.8856 49.5945 13.8402 50.5078 14.943C51.1839 15.7597 51.8281 16.6196 52.2295 17.5817C52.9093 19.2087 52.8606 20.8516 51.8347 22.3744Z" fill="#BA8E36"/>
<path d="M35.831 8.33669C36.0807 8.42643 35.847 8.82522 35.8988 9.08543C35.9718 9.45238 36.1376 9.78154 36.3486 10.0912C37.1776 11.3093 38.3019 12.2329 39.4366 13.1406C41.8146 15.0423 44.3296 16.7649 46.6842 18.6967C48.1968 19.9373 49.6343 21.2576 50.8496 22.7936C51.7808 23.9704 52.4381 25.2982 52.5244 26.8277C52.5731 27.6913 52.3725 28.5268 51.9308 29.2892C51.9148 29.3164 51.9008 29.3473 51.8773 29.3661C51.7179 29.4945 51.7798 29.8762 51.5276 29.818C51.3213 29.7702 51.4938 29.4664 51.4375 29.2817C51.1909 28.4696 50.7286 27.7794 50.1632 27.1718C48.7744 25.678 47.1184 24.4946 45.5158 23.2512C43.9761 22.0556 42.4232 20.8769 40.9013 19.6588C39.9579 18.9039 39.0709 18.0843 38.2766 17.1635C37.7843 16.5924 37.1954 16.1038 36.7031 15.5328C35.9867 14.702 35.41 13.7783 35.1146 12.7055C35.0021 12.2958 34.8277 11.9094 34.7967 11.4677C34.7573 10.8957 34.8089 10.3265 34.9777 9.8061C35.109 9.40101 35.1934 8.93402 35.5319 8.60675C35.6303 8.51111 35.6107 8.25323 35.831 8.33669Z" fill="#BA8E36"/>
<path d="M55.8187 29.0821C55.7299 29.449 55.4045 29.6663 55.2312 29.331C54.6311 28.1804 54.586 26.9689 54.8458 25.717C55.1824 24.0947 56.2317 22.9104 57.2829 21.7439C59.4078 19.3855 61.9772 17.5429 64.4959 15.6449C66.3038 14.2824 68.1605 12.9808 69.7799 11.3858C70.3163 10.8578 70.8133 10.2999 71.1434 9.61253C71.3555 9.16985 71.8882 8.95572 72.0456 9.4207C72.0813 9.52639 72.1142 9.63208 72.1477 9.73631C72.6709 11.3623 72.2105 12.8411 71.3863 14.243C70.6126 15.5596 69.4958 16.5864 68.4371 17.6591C67.2125 18.8997 65.8809 20.0213 64.5165 21.1006C63.4475 21.9464 62.3185 22.7182 61.2636 23.5799C59.9798 24.6283 58.6201 25.5885 57.4395 26.7616C57.146 27.0533 56.8535 27.3496 56.5946 27.6722C56.2493 28.1025 55.9465 28.5542 55.8187 29.0821Z" fill="#BA8E36"/>
<path d="M105.901 49.9202C105.9 49.9111 105.893 49.9042 105.884 49.9042C105 49.9042 104.114 49.9088 103.23 49.8985C103.1 49.8967 102.888 50.0064 102.854 49.7626C102.827 49.5657 103.022 49.6041 103.129 49.5375C103.278 49.4447 103.485 49.3565 103.347 49.0658C102.723 47.7446 102.105 46.4187 101.528 45.0768C101.403 44.787 101.247 44.7701 101.006 44.7711C99.5999 44.7758 98.1924 44.8095 96.7886 44.7561C96.1838 44.7326 95.7965 44.8742 95.6108 45.4631C95.3483 46.2968 94.8841 47.0413 94.5475 47.8431C94.419 48.1488 94.3852 48.4704 94.2905 48.7798C94.1817 49.1352 94.5034 49.5225 94.8822 49.5544C95.1148 49.5741 95.3511 49.561 95.5846 49.5732C95.7074 49.5788 95.8537 49.59 95.864 49.7551C95.8753 49.9351 95.7252 49.9314 95.6014 49.9426C95.5236 49.9492 95.4448 49.952 95.367 49.9482C93.7119 49.8826 92.0559 49.922 90.4009 49.9436C90.1899 49.9464 89.8232 50.0364 89.812 49.7738C89.797 49.4372 90.1711 49.5863 90.3737 49.5713C91.4548 49.4925 92.2285 49.0255 92.6598 47.9837C93.0715 46.9916 93.605 46.0492 94.0064 45.0533C94.6262 43.5183 95.4092 42.062 96.0872 40.5541C96.5298 39.5686 96.9686 38.5755 97.4825 37.6181C97.9092 36.8229 98.228 35.9705 98.5984 35.1454C98.6903 34.94 98.7803 34.7299 98.8957 34.5377C99.086 34.2217 99.4105 34.2179 99.6449 34.5265C99.9572 34.9381 100.142 35.4201 100.359 35.8824C101.372 38.0485 102.372 40.2203 103.385 42.3864C104.122 43.9637 104.867 45.5381 105.618 47.1088C105.802 47.4933 106.021 47.8609 106.226 48.2369C106.743 49.1878 107.54 49.6285 108.623 49.5778C108.745 49.5722 108.998 49.425 109 49.741C109.001 50.0467 108.746 49.9229 108.62 49.9248C107.719 49.9416 106.817 49.9343 105.916 49.9342C105.908 49.9342 105.901 49.9281 105.901 49.9202ZM98.8564 38.651C98.8132 38.5484 98.6553 38.5214 98.6106 38.6234C97.9186 40.2203 97.234 41.8191 96.5354 43.4133C96.407 43.7068 96.5073 43.7518 96.7774 43.7499C98.0555 43.7415 99.3336 43.7377 100.612 43.7499C100.932 43.7527 100.982 43.6805 100.852 43.3823C100.349 42.2289 99.8709 41.0643 99.3823 39.9043C99.2117 39.4961 99.0405 39.088 98.8564 38.651Z" fill="#3A271A"/>
<path d="M28.5674 42.3857C28.576 42.386 28.5822 42.3789 28.5822 42.3702C28.5821 40.7194 28.5655 39.0686 28.5916 37.4178C28.6001 36.873 28.4585 36.3507 28.4547 35.8049C28.4519 35.3679 28.0271 35.1091 27.5883 35.0294C27.2826 34.9732 26.9666 34.9788 26.6562 34.9488C26.4968 34.9338 26.2558 34.9966 26.2511 34.75C26.2454 34.4687 26.4996 34.5821 26.6412 34.585C29.625 34.6403 32.6088 34.66 35.5936 34.63C36.1103 34.6253 36.6223 34.5737 37.1249 34.4518C37.4081 34.3824 37.5159 34.4837 37.4484 34.7594C37.2665 35.5086 37.2824 36.2794 37.1896 37.038C37.168 37.2162 37.2084 37.4572 36.9458 37.4741C36.6476 37.4928 36.7217 37.2387 36.7057 37.0671C36.6364 36.3179 36.3775 35.9953 35.6424 35.8565C34.3755 35.6183 33.0889 35.7102 31.8099 35.669C31.6008 35.6624 31.5436 35.7674 31.5445 35.9568C31.5473 37.6129 31.5483 39.2689 31.5445 40.9258C31.5445 41.1115 31.5905 41.224 31.8033 41.2184C33.1921 41.1856 34.5837 41.2897 35.9696 41.1199C36.2472 41.0862 36.4713 40.9643 36.6645 40.7692C36.7545 40.6792 36.8567 40.5892 36.9927 40.6455C37.1521 40.712 37.0893 40.8611 37.0696 40.9718C36.9111 41.8664 36.8755 42.7713 36.8126 43.6743C36.8014 43.8337 36.8014 44.01 36.581 44.0091C36.3869 44.0081 36.3888 43.8431 36.3663 43.7043C36.1816 42.5781 35.9377 42.3531 34.7881 42.3099C33.8513 42.2752 32.9136 42.2762 31.9768 42.2415C31.6683 42.2302 31.5342 42.2968 31.5389 42.6475C31.5567 44.1629 31.5351 45.6782 31.5473 47.1936C31.5567 48.3517 31.8615 48.7127 33.0055 48.8412C33.9835 48.9509 34.971 48.9574 35.9499 48.8083C36.8877 48.6649 37.32 48.2588 37.5394 47.3408C37.5647 47.2348 37.5825 47.127 37.6163 47.0239C37.6538 46.9085 37.7372 46.8363 37.8648 46.8626C37.9651 46.8841 38.0223 46.9582 38.0195 47.0661C37.996 47.9569 37.9379 48.8468 37.6303 49.6917C37.5084 50.0274 37.1577 50.0133 36.8614 50.0096C35.4398 49.9946 34.0182 49.9861 32.5966 49.9458C30.8 49.8952 29.0042 49.8933 27.2075 49.9411C26.975 49.9477 26.583 50.0293 26.5586 49.7911C26.5315 49.522 26.9159 49.6138 27.1288 49.5538C27.2891 49.5088 27.4289 49.5107 27.592 49.5126C28.0309 49.5173 28.2841 49.175 28.3609 48.8065C28.451 48.3779 28.5579 47.9447 28.5541 47.4927C28.5401 45.7959 28.5484 44.099 28.5485 42.4022C28.5485 42.3926 28.5578 42.3853 28.5674 42.3857Z" fill="#3A271A"/>
<path d="M82.9778 50.2186C82.2089 50.2252 81.2084 50.1511 80.25 49.7282C79.8046 49.5313 79.6855 49.1796 79.7671 48.8205C79.9668 47.9381 79.7005 47.0351 79.9499 46.1583C80.0006 45.9811 79.9696 45.8263 80.2069 45.8245C80.446 45.8226 80.4872 45.9848 80.4872 46.1695C80.4872 46.5184 80.5801 46.8484 80.687 47.1748C80.8248 47.5949 81.0405 47.9709 81.3509 48.2897C82.5268 49.5003 85.1402 49.5932 86.4015 48.4688C87.2332 47.728 87.387 46.6037 86.8 45.5713C86.379 44.8314 85.7319 44.3166 85.0568 43.8337C84.3085 43.2982 83.5405 42.789 82.8025 42.2386C82.0251 41.6581 81.3265 40.9811 80.8314 40.1437C80.2519 39.1647 80.1159 38.1089 80.5182 37.0192C81.1136 35.4035 82.433 34.7659 83.9962 34.4639C85.5566 34.162 87.1076 34.3205 88.6539 34.5699C88.9615 34.6196 89.1659 34.7593 89.1349 35.1588C89.0749 35.9362 89.0796 36.7192 89.0534 37.4993C89.0468 37.685 89.0534 37.8904 88.7964 37.9232C88.4963 37.9616 88.5629 37.7235 88.5357 37.5622C88.2788 36.0196 86.9228 35.2938 85.5594 35.2976C85.053 35.2985 84.5663 35.3135 84.0628 35.456C82.8831 35.7899 82.1939 37.4093 82.9816 38.4183C83.4064 38.9622 83.9456 39.356 84.4923 39.7715C85.4534 40.501 86.5524 41.0364 87.4433 41.8457C88.261 42.5893 89.0487 43.3836 89.3994 44.491C90.0755 46.6206 89.0337 48.7745 86.9453 49.6401C85.7441 50.137 84.5026 50.2571 82.9778 50.2186Z" fill="#3A271A"/>
<path d="M66.3044 47.7113C66.3256 47.7118 66.3427 47.6945 66.3427 47.6733C66.3431 47.1881 66.3499 46.7021 66.3389 46.2169C66.3343 45.9918 66.4477 45.8474 66.64 45.823C66.8209 45.7996 66.8838 45.9515 66.9044 46.1325C67.1557 48.3446 68.6654 49.513 70.901 49.2345C71.3201 49.182 71.7299 49.0957 72.1191 48.9203C73.52 48.2883 73.9804 46.8555 73.1993 45.5286C72.7689 44.7972 72.1172 44.2852 71.4392 43.8051C70.6375 43.2368 69.7954 42.7229 69.0386 42.0918C68.2528 41.4373 67.5017 40.7443 67.0591 39.7991C66.5565 38.7254 66.5677 37.1754 67.4295 36.1204C68.4244 34.9033 69.756 34.5329 71.2104 34.3584C71.5911 34.3125 71.9793 34.244 72.3516 34.229C72.7989 34.2112 73.2546 34.3584 73.7188 34.3866C74.2364 34.4175 74.7484 34.5516 75.2623 34.6482C75.4649 34.6866 75.613 34.7926 75.5774 35.0308C75.4714 35.7444 75.5558 36.4655 75.4967 37.181C75.4874 37.2898 75.5249 37.4173 75.4789 37.5045C75.4058 37.6452 75.5577 37.9274 75.2454 37.9208C74.9707 37.9152 75.0025 37.6902 74.9763 37.5101C74.8309 36.518 74.2336 35.87 73.3428 35.5081C72.4304 35.1377 71.4786 35.1311 70.5456 35.4471C68.9955 35.9732 68.5885 37.5533 69.6838 38.7648C70.2755 39.4193 71.005 39.9079 71.7458 40.3721C72.7773 41.0191 73.8116 41.6896 74.6397 42.5682C77.0074 45.0813 76.3266 48.7244 72.7839 49.8506C71.1973 50.3551 69.5835 50.3101 67.964 50.055C67.5055 49.9828 67.0347 49.9697 66.6043 49.7418C66.3511 49.6077 66.2499 49.4398 66.2583 49.1604C66.272 48.6916 66.2626 48.221 66.2621 47.7513C66.262 47.7286 66.2817 47.7108 66.3044 47.7113Z" fill="#3A271A"/>
<path d="M47.7832 34.5769C48.2084 34.5609 48.2688 35.0419 47.8436 35.0248C47.7811 35.0223 47.7185 35.0175 47.6566 35.0139C46.7095 34.9614 46.385 35.2249 46.3044 36.1711C46.2678 36.6062 46.2688 37.045 46.2688 37.482C46.2697 40.433 46.2716 43.385 46.2809 46.336C46.2828 46.8311 46.3353 47.3234 46.4272 47.8138C46.5248 48.3352 46.8633 48.5968 47.334 48.6897C48.6168 48.9429 49.9193 48.9654 51.2021 48.7684C52.0836 48.6334 52.6453 48.0089 52.8319 47.1246C52.8816 46.8883 52.996 46.7767 53.177 46.7852C53.3776 46.7945 53.2951 47.0036 53.2998 47.1293C53.3317 47.9254 53.1563 48.6972 52.9969 49.4689C52.9425 49.7305 52.7775 49.8993 52.4924 49.9547C52.228 50.0062 51.9654 50.009 51.7 50.0137C48.8784 50.0625 46.0606 49.8243 43.239 49.9153C42.7242 49.9322 42.2084 49.9406 41.6936 49.9406C41.5455 49.9406 41.3316 49.9472 41.3485 49.7305C41.3617 49.5655 41.5576 49.5721 41.6936 49.573C42.877 49.5786 43.1837 49.5102 43.2512 47.9198C43.4153 44.0339 43.3768 40.1451 43.283 36.2583C43.2615 35.3815 42.9849 35.1077 42.1062 34.9952C41.8896 34.968 41.6702 34.9698 41.4526 34.9492C41.3204 34.9361 41.1254 34.9633 41.131 34.7682C41.1357 34.5854 41.3345 34.5966 41.462 34.5863C41.7105 34.5676 41.9618 34.5676 42.2112 34.5797C44.0689 34.6698 45.9265 34.6379 47.7832 34.5769Z" fill="#3A271A"/>
<path d="M59.1693 49.9443C59.1695 49.9459 59.1681 49.9465 59.1664 49.9465C58.1838 49.9465 57.2011 49.9465 56.2184 49.9465C56.0627 49.9465 55.9061 49.9493 55.7504 49.9381C55.6285 49.9296 55.4729 49.924 55.4663 49.7608C55.4597 49.5967 55.607 49.5836 55.7336 49.5723C55.7804 49.5686 55.8273 49.5695 55.8742 49.5705C57.2264 49.6033 57.3127 49.0228 57.3408 47.8666C57.3586 47.1258 57.4261 46.3878 57.4327 45.6489C57.4552 43.0561 57.4524 40.4633 57.4336 37.8714C57.429 37.2263 57.3455 36.583 57.3436 35.9341C57.3417 35.4109 56.7078 34.9926 56.0889 35.0067C55.8264 35.0123 55.3913 35.1445 55.38 34.8013C55.3707 34.5069 55.8123 34.5735 56.073 34.581C57.9306 34.6391 59.7883 34.6597 61.6459 34.5772C61.6928 34.5753 61.7397 34.5744 61.7865 34.5772C61.9769 34.5885 62.2723 34.5406 62.2779 34.7695C62.2845 35.0395 61.9863 34.8839 61.825 34.9232C61.5184 34.9973 61.2183 35.0939 60.907 35.1577C60.5863 35.2242 60.4653 35.5168 60.4334 35.8235C60.3987 36.1498 60.364 36.477 60.364 36.8043C60.3621 40.303 60.3659 43.8007 60.3725 47.2993C60.3734 47.5797 60.4034 47.8601 60.4175 48.1414C60.4728 49.2535 60.7157 49.4955 61.84 49.5498C62.1054 49.563 62.3717 49.5545 62.6352 49.5789C62.7468 49.5892 62.9174 49.608 62.9165 49.7543C62.9156 49.8968 62.7646 49.9343 62.6352 49.9352C62.2291 49.9399 61.8231 49.9399 61.4171 49.9399C60.6691 49.9409 59.9211 49.9399 59.1722 49.9399C59.1703 49.9399 59.1691 49.9424 59.1693 49.9443Z" fill="#3A271A"/>
<path d="M68.4367 27.2499C67.3299 27.7666 66.3323 26.9717 66.3903 25.7516C66.433 24.8515 66.4327 23.9583 66.4506 23.0658C66.4675 22.2528 66.7329 21.5476 67.393 20.9625C67.8056 20.5977 68.2782 20.3033 68.6552 19.9076C69.532 18.9858 70.5409 18.1925 71.308 17.1638C71.4009 17.0392 71.5056 16.923 71.6209 16.8021C71.7737 16.6421 72.0507 16.7541 72.0507 16.9753C72.0507 19.0824 72.0413 21.1904 72.0535 23.2974C72.0582 24.1123 71.7984 24.7753 71.1767 25.3267C70.3337 26.074 69.4663 26.7689 68.4367 27.2499Z" fill="#BA8E36"/>
<path d="M40.9097 27.3297C40.9703 27.7555 40.5666 28.1375 40.1754 27.9586C39.4761 27.6387 38.821 27.2912 38.1846 26.9096C37.4992 26.4989 36.8043 26.0844 36.1901 25.579C35.6443 25.1298 35.2055 24.5297 35.1989 23.7758C35.1799 21.6469 35.1878 19.518 35.19 17.3624C35.1904 16.9486 35.5285 16.7932 35.8019 17.1039C36.8924 18.3379 37.9952 19.5607 39.3343 20.5378C40.3883 21.3067 40.8525 22.3204 40.8056 23.6342C40.7615 24.8645 40.7352 26.1013 40.9097 27.3297Z" fill="#BA8E36"/>
<path d="M67.7341 60.3275C67.7336 60.3267 67.7324 60.3273 67.7327 60.3281C67.9803 61.2322 68.36 61.5506 69.1123 61.5534C69.5568 61.5553 69.7209 61.3715 69.7247 60.9383C69.7368 59.5645 69.7697 58.1908 69.8015 56.816C69.8053 56.6398 69.7097 56.4035 69.9263 56.3087C70.1119 56.2281 70.231 56.4278 70.3548 56.5347C71.6995 57.6994 73.0414 58.8678 74.3833 60.0362C74.5014 60.139 74.5971 60.0792 74.5974 59.9226C74.5995 58.9209 74.611 57.9272 74.5896 56.9342C74.5834 56.6323 74.5326 56.4241 74.8346 56.4241C75.2155 56.4241 75.5969 56.4241 75.9798 56.4241C75.9883 56.4241 75.9954 56.4256 75.9969 56.434C75.9985 56.4426 75.9933 56.4562 75.9847 56.4576C75.2641 56.5757 75.3463 57.1228 75.3407 57.6487C75.3266 58.8978 75.2816 60.1468 75.2629 61.3959C75.2572 61.7597 75.1503 61.8385 74.8137 61.6706C74.4048 61.4672 74.0513 61.1774 73.7344 60.8783C72.8895 60.0803 71.9105 59.4332 71.1331 58.5602C70.9081 58.308 70.3751 58.5158 70.3933 58.8533C70.3999 58.976 70.4067 59.0964 70.4083 59.2166C70.4139 59.6845 70.4476 60.1525 70.4608 60.6204C70.4801 61.2903 70.5085 61.4182 70.9926 61.5363C71.1442 61.5732 71.2071 61.732 71.0515 61.7194C69.7884 61.6134 68.5234 61.7813 67.2603 61.6838C67.0925 61.6706 66.9987 61.7175 66.949 61.4203C66.8721 60.9561 66.5664 60.5266 66.3404 60.0915C66.3057 60.024 66.1847 59.9659 66.1022 59.9621C65.5143 59.9396 64.9216 59.8599 64.344 60.0371C64.1274 60.1037 63.6313 61.1521 63.6941 61.3678C63.7612 61.5953 63.8154 61.702 63.5782 61.7015C63.077 61.7003 62.618 61.6992 62.1591 61.7044C61.2457 61.7147 60.6681 61.229 60.1936 60.4957C59.8757 60.0052 59.541 59.4426 58.7767 59.5776C58.6126 59.6067 58.516 59.633 58.5235 59.8196C58.5413 60.2913 58.5198 60.7676 58.5779 61.2346C58.6164 61.5403 58.8967 61.59 59.164 61.5328C59.2531 61.514 59.3178 61.499 59.3478 61.5872C59.389 61.7053 59.285 61.7157 59.2146 61.7119C58.4166 61.665 57.6167 61.6584 56.7747 61.6547C57.7415 61.5825 57.3683 60.7892 57.3917 60.4C57.4592 59.2579 57.5174 58.1017 57.3561 56.952C57.3148 56.6576 57.2079 56.5788 56.9594 56.5638C56.8016 56.5541 56.8467 56.4014 57.0048 56.4037C58.141 56.4198 59.2175 56.2999 60.2911 56.4907C60.8013 56.5816 61.1914 56.8507 61.3536 57.3656C61.5224 57.8991 61.2486 58.292 60.9157 58.669C60.7319 58.8781 60.3127 59.0084 60.3568 59.2372C60.4084 59.5007 60.7112 59.7371 60.9457 59.9377C61.4061 60.3316 61.7399 60.852 62.2435 61.2018C62.6261 61.4672 62.7574 61.4456 62.9646 61.033C63.6491 59.6677 64.3271 58.2995 65.0079 56.9333C65.1364 56.6745 65.2526 56.3012 65.5452 56.3087C65.8622 56.3172 65.8987 56.742 66.0272 56.9895C66.5786 58.0492 67.0953 59.1275 67.6242 60.1994C67.6502 60.2534 67.6569 60.3194 67.7333 60.3286C67.7339 60.3287 67.7344 60.328 67.7341 60.3275ZM59.179 59.1388C59.9151 59.1444 60.3418 58.7206 60.338 57.9873C60.3343 57.1958 59.7895 56.7429 58.9005 56.7607C58.6211 56.7663 58.5076 56.8489 58.5188 57.1386C58.5367 57.5906 58.5235 58.0435 58.5245 58.4955C58.5263 59.1341 58.5273 59.1341 59.179 59.1388ZM65.2928 59.5187C65.688 59.5189 65.946 59.1018 65.7825 58.7421C65.5903 58.3191 64.9964 58.3284 64.8012 58.75C64.7241 58.9163 64.6482 59.0793 64.5719 59.2419C64.495 59.407 64.4509 59.5308 64.7191 59.5242C64.9086 59.5198 65.098 59.5187 65.2928 59.5187Z" fill="#BA8E36"/>
<path d="M33.6289 56.4902C33.5923 56.4779 33.6434 56.4189 33.682 56.4189C34.5178 56.4189 35.3468 56.4189 36.1748 56.4189C35.3853 56.4958 35.5334 57.0847 35.5306 57.576C35.5231 58.6638 35.5269 58.6638 36.6306 58.6638C37.2082 58.6638 37.7868 58.6507 38.3644 58.6704C38.6598 58.6797 38.8023 58.6057 38.7658 58.2831C38.7395 58.0515 38.7517 57.8152 38.7489 57.5807C38.7454 57.2821 39.2523 56.4367 39.5509 56.4367C39.8622 56.4367 40.1736 56.4367 40.4851 56.4367C40.5189 56.4367 40.5577 56.4755 40.5399 56.5043C40.5383 56.5069 40.5373 56.5052 40.5343 56.5053C39.9786 56.522 39.8732 56.8526 39.8845 57.3435C39.9107 58.4678 39.8882 59.5921 39.9004 60.7165C39.9032 61.0137 39.8273 61.371 40.2333 61.5032C40.7622 61.6758 41.4073 61.5267 41.6183 61.1356C42.0328 60.3667 42.4126 59.579 42.8045 58.7979C43.1749 58.059 43.5416 57.3172 43.9129 56.5783C43.9795 56.4451 44.0105 56.2585 44.213 56.2679C44.3855 56.2764 44.4193 56.4414 44.4793 56.5633C45.1367 57.8892 45.7968 59.2133 46.442 60.5449C46.5558 60.7792 46.1916 61.6822 45.9312 61.6729C45.8417 61.6697 45.7522 61.6673 45.6627 61.6664C45.628 61.6664 45.5596 61.6064 45.5643 61.5932C45.749 61.0428 45.1985 60.7662 45.0926 60.3217C45.0157 60.0001 44.77 59.895 44.4484 59.9325C44.2946 59.9504 44.1361 59.9372 43.9804 59.9354C42.6067 59.9194 42.9564 59.9222 42.3891 61.1038C42.2796 61.3317 42.2099 61.6683 41.957 61.6683C40.672 61.6683 39.3866 61.6683 38.1019 61.6683C38.8248 61.5942 38.7536 61.0559 38.7601 60.5693C38.7648 60.1942 38.7479 59.8191 38.7686 59.4449C38.7836 59.1702 38.6748 59.098 38.416 59.1017C37.557 59.1139 36.6981 59.112 35.8391 59.1017C35.6 59.0989 35.4997 59.173 35.51 59.4215C35.5259 59.8116 35.5119 60.2026 35.5212 60.5927C35.5305 60.9986 35.536 61.2144 35.6249 61.3421C35.789 61.5779 35.8639 61.6671 35.5768 61.677C35.3913 61.6834 35.1893 61.686 34.988 61.6845C34.7421 61.6827 34.3728 60.9943 34.3744 60.7484C34.381 59.5931 34.3622 58.4369 34.3885 57.2816C34.3988 56.8099 34.2806 56.523 33.7602 56.5305C33.7161 56.5314 33.6711 56.508 33.6289 56.4902ZM44.4522 58.7544C44.2613 58.331 43.6581 58.3231 43.4629 58.7446C43.3797 58.9242 43.2986 59.1001 43.2181 59.2761C43.1702 59.3812 43.1449 59.5077 43.3165 59.5115C43.5288 59.5152 43.741 59.5162 43.9563 59.5161C44.3495 59.516 44.6137 59.1129 44.4522 58.7544Z" fill="#BA8E36"/>
<path d="M28.3857 59.3029C27.7957 58.8567 26.9524 59.1794 26.9528 59.9191C26.953 60.2742 26.954 60.6274 26.9566 60.9804C26.9577 61.1006 26.704 61.6635 26.5838 61.6642C26.4699 61.6649 26.3561 61.6653 26.2424 61.6654C26.1008 61.6655 26.0733 61.443 26.1359 61.3159C26.1993 61.1872 26.202 60.9921 26.2083 60.6382C26.2318 59.3263 26.259 58.0154 26.289 56.7035C26.2918 56.5703 26.2327 56.4006 26.3856 56.319C26.5665 56.2224 26.6734 56.3903 26.7832 56.4859C28.1391 57.6609 29.4913 58.8415 30.8454 60.0193C30.972 60.1282 31.1698 60.0283 31.1706 59.8612C31.1715 59.6993 31.1716 59.549 31.1679 59.3985C31.152 58.7899 31.1258 58.1813 31.1107 57.5728C31.1034 57.2651 31.5906 56.4325 31.8983 56.4325C32.0231 56.4325 32.1479 56.4325 32.2729 56.4325C32.3751 56.4325 32.4536 56.5408 32.3514 56.5422C31.9388 56.5506 31.8394 56.7973 31.8347 57.162C31.815 58.5358 31.7812 59.9096 31.7465 61.2833C31.7428 61.4427 31.8272 61.6575 31.6181 61.7409C31.4221 61.8188 31.2514 61.6631 31.1164 61.5628C30.1702 60.8548 29.3272 60.0212 28.3857 59.3029Z" fill="#BA8E36"/>
<path d="M82.8392 57.1461C82.771 57.4417 82.5223 57.4704 82.3127 57.2513C81.8053 56.7208 81.0668 56.6897 80.329 56.6848C79.4822 56.6782 78.7301 56.9483 78.3588 57.7735C77.9659 58.6474 78.0587 59.5317 78.627 60.3034C79.3162 61.2393 80.3196 61.4615 81.4205 61.3659C81.6624 61.3453 81.7749 61.2037 81.7712 60.957C81.7665 60.5829 81.759 60.2069 81.7768 59.8336C81.7946 59.4539 81.6521 59.2373 81.2535 59.2204C81.1395 59.2154 81.1801 59.091 81.2943 59.091C81.5339 59.091 81.7735 59.091 82.013 59.091C82.1757 59.091 82.928 60.0818 82.9227 60.2444C82.9199 60.3222 82.9218 60.401 82.9218 60.4788C82.9208 61.5516 82.9217 61.5591 81.8724 61.7213C80.8738 61.8751 79.8667 61.8113 78.8961 61.5966C77.4511 61.2768 76.6737 59.8411 76.9757 58.3924C77.1951 57.3384 77.9246 56.8583 78.8202 56.5319C79.9548 56.1193 81.1176 56.3031 82.2766 56.4185C82.7567 56.4663 82.9536 56.6576 82.8392 57.1461Z" fill="#BA8E36"/>
<path d="M53.7005 60.9921C53.7017 61.1419 53.4962 61.661 53.3463 61.6609C52.8643 61.6603 52.3805 61.6487 51.885 61.6616C52.6127 61.5735 52.5424 61.053 52.5442 60.5823C52.5489 59.457 52.5414 58.3318 52.5555 57.2075C52.5593 56.928 52.4861 56.8127 52.1879 56.8371C51.8147 56.8671 51.4377 56.8446 51.0636 56.8643C50.817 56.8774 50.5563 56.8877 50.4616 57.199C50.4419 57.2647 50.3743 57.3472 50.2853 57.3219C50.1577 57.2862 50.2121 57.1756 50.2159 57.0893C50.2206 56.9815 50.2318 56.8746 50.2299 56.7667C50.2243 56.432 50.38 56.2782 50.7166 56.3176C52.2704 56.4957 53.8299 56.3851 55.3865 56.3776C55.8178 56.3757 55.997 56.4479 55.9135 56.8924C55.8562 57.1935 55.6578 57.1977 55.3947 57.0405C54.9638 56.7831 54.4209 56.8633 53.9124 56.8399C53.7267 56.8314 53.6723 56.9336 53.6733 57.1015C53.6845 58.3984 53.693 59.6952 53.7005 60.9921Z" fill="#BA8E36"/>
<path d="M67.7368 60.3283C67.7373 60.329 67.7377 60.3285 67.7385 60.328C67.741 60.3264 67.7436 60.3248 67.7461 60.3233C67.7493 60.3214 67.7472 60.3171 67.7437 60.3184C67.7417 60.3191 67.7397 60.3198 67.7376 60.3205C67.7359 60.3211 67.7356 60.327 67.7368 60.3283Z" fill="#BA8E36"/>
</svg>
