<svg width="76" height="60" viewBox="0 0 76 60" fill="none" xmlns="http://www.w3.org/2000/svg">
<path d="M71.3927 4.15962e-05C71.4246 -3.97231e-05 71.4549 0.0127083 71.4779 0.0348454C74.193 2.64987 73.7261 5.79112 72.8549 8.95251C71.4229 14.1439 68.0985 17.8373 63.6095 20.6624C60.4459 22.653 56.9489 23.7938 53.4755 25.0295C50.9027 25.9435 48.318 26.8305 45.8738 28.0678C44.7109 28.6568 43.6039 29.3339 42.722 30.3072C41.593 31.5513 41.1343 33.0155 41.4932 34.6777C41.6709 35.5037 42.2058 36.0673 43.0047 36.3568C43.1858 36.4228 43.416 36.438 43.5735 36.3009C43.7918 36.1097 43.5481 35.9472 43.4821 35.788C43.2078 35.1279 43.3297 34.5626 43.89 34.1309C44.3639 33.7653 44.892 33.7585 45.3846 34.1021C45.9601 34.505 46.1328 35.0585 45.9059 35.7339C45.5454 36.8053 44.7025 37.264 43.6767 37.4215C42.524 37.5992 41.5626 37.1777 40.8618 36.2535C39.5043 34.4593 39.743 31.8526 41.4204 29.7774C42.8845 27.9662 44.8717 26.8982 46.9486 26.0044C49.7923 24.7806 52.6986 23.7024 55.5338 22.46C59.2086 20.8486 62.6989 18.9155 65.7118 16.2056C69.2072 13.0623 70.9337 9.10655 71.3162 4.47033C71.4364 3.01138 71.2843 1.57005 71.2713 0.12296C71.2707 0.0555004 71.3252 0.000213509 71.3927 4.15962e-05Z" fill="#B49050"/>
<path d="M2.6866 3.38657C3.00077 1.68249 4.61397 2.3951 4.71346 4.12503C5.05031 10.0578 7.73657 14.6213 12.5404 18.0337C16.4098 20.7826 20.6872 22.7054 25.0966 24.3829C27.8624 25.434 30.6468 26.4716 33.0368 28.2709C34.8412 29.6301 36.087 31.3685 36.0786 33.7467C36.0752 34.8859 35.6605 35.9065 34.8243 36.7021C33.4956 37.9665 31.1495 37.6906 30.3387 36.1926C29.9731 35.5172 29.8885 34.8334 30.5148 34.263C31.0073 33.8144 31.5913 33.7653 32.1431 34.1597C32.7982 34.6286 32.8879 35.2616 32.5138 35.9455C32.2548 36.4177 32.5764 36.4042 32.8659 36.4093C33.548 36.4211 34.3673 35.6611 34.5636 34.7471C35.0071 32.6905 34.2606 31.0435 32.7 29.73C30.789 28.122 28.487 27.2502 26.1917 26.3904C23.1077 25.236 19.9542 24.2508 16.9176 22.9847C12.5691 21.1736 8.65399 18.6633 5.91695 14.716C3.77065 11.6269 2.47407 8.19759 2.58578 4.35523C2.59537 4.02124 2.62925 3.69765 2.6866 3.38657Z" fill="#B49050"/>
<path d="M42.678 33.1558C42.6811 33.1585 42.686 33.1564 42.6863 33.1522C42.7595 32.0187 43.492 31.2629 44.2717 30.5913C46.4383 28.7243 49.0738 27.8035 51.777 27.0807C55.3654 26.1226 59.0013 25.3068 62.3714 23.6937C66.207 21.8571 69.5297 19.3418 72.1601 15.9649C72.8558 15.0712 73.4245 14.103 73.8764 13.0654C74.0796 12.5965 74.3233 12.1514 74.7075 11.8061C74.8903 11.6402 75.0985 11.4235 75.3728 11.5454C75.6283 11.6605 75.5285 11.9432 75.5353 12.1514C75.6063 14.4635 74.7685 16.4609 73.2992 18.1857C70.3286 21.6709 66.4744 23.8325 62.2377 25.3745C58.6577 26.6778 54.8932 27.2855 51.2218 28.252C48.6946 28.9172 46.2707 29.7873 44.2802 31.5595C43.7196 32.0593 43.2095 32.6164 42.6777 33.1484C42.6756 33.1505 42.6757 33.1539 42.678 33.1558Z" fill="#B49050"/>
<path d="M0.643264 13.8777C0.502036 13.0879 -0.0258228 11.8226 0.73784 11.5766C1.18809 11.431 1.47584 11.9862 1.7619 12.3247C1.86854 12.4517 1.95148 12.6057 2.02427 12.758C4.75284 18.5165 9.54817 21.9543 15.2034 24.3748C18.4465 25.7628 21.9182 26.4483 25.3001 27.4098C27.201 27.9497 29.0104 28.7233 30.698 29.7727C31.6493 30.3668 32.3484 31.1844 32.951 32.1069C33.0508 32.2592 33.1304 32.4268 33.0001 32.5639C32.8325 32.7417 32.692 32.569 32.5904 32.4505C30.3189 29.7947 27.1637 28.8976 23.9578 28.0716C20.2289 27.1102 16.4052 26.4957 12.8133 25.0366C8.90326 23.4489 5.33681 21.3449 2.61331 18.0392C1.60012 16.8095 0.920973 15.4307 0.643264 13.8777Z" fill="#B49050"/>
<path d="M40.7015 28.542C39.5013 29.5437 36.5068 29.4334 35.2709 28.4761C35.1775 28.4038 35.0818 28.3333 34.9836 28.2644C34.728 28.085 34.7991 27.9225 34.9193 27.7007C36.5392 24.6844 36.9471 21.3482 37.4228 18.0373C37.5358 17.2495 37.623 16.458 37.7068 15.6651C37.765 15.1151 38.281 15.108 38.3283 15.6591C38.4502 17.0742 38.743 18.474 38.9529 19.8823C39.239 21.8035 39.608 23.7061 40.148 25.5748C40.3358 26.2247 40.5424 26.8798 40.9097 27.4452C41.2228 27.9276 41.1348 28.1781 40.7015 28.542Z" fill="#B49050"/>
<path d="M29.4087 31.0367C29.62 31.1824 29.577 31.5288 29.3462 31.4163C26.3976 29.9725 23.2069 29.6983 20.0027 29.4156C15.9996 29.0635 11.9676 28.8215 8.13881 27.4166C6.46476 26.8021 4.83642 26.1031 3.64647 24.688C3.21823 24.1785 2.95248 23.603 2.92371 22.9259C2.89832 22.3538 3.13698 22.2201 3.64478 22.4486C4.11026 22.6585 4.54697 22.909 4.94136 23.2323C8.09311 25.8085 11.7797 27.029 15.7558 27.5909C19.3443 28.097 22.9683 28.4728 26.4145 29.6864C27.3252 30.0064 28.2595 30.3043 29.0889 30.8256C29.1968 30.8926 29.3021 30.9631 29.4087 31.0367Z" fill="#B49050"/>
<path d="M46.9692 31.2534C46.5866 31.4125 46.4957 31.0796 46.8514 30.8671C47.6532 30.3879 48.4996 30.0709 49.3508 29.7587C53.7432 28.149 58.4251 28.0068 62.9496 27.0691C65.8373 26.4699 68.4356 25.2495 70.7765 23.4637C71.2454 23.1066 71.7481 22.7951 72.2491 22.4854C72.4607 22.3533 72.7282 22.2196 72.9651 22.3736C73.2478 22.5581 73.1513 22.8882 73.1141 23.1523C73.0092 23.9072 72.6046 24.5132 72.068 25.0362C70.587 26.4817 68.703 27.147 66.792 27.7529C63.7367 28.7211 60.5596 28.9463 57.3994 29.2662C54.8028 29.5285 52.1877 29.6233 49.6419 30.2869C48.7177 30.5272 47.8409 30.8759 46.9692 31.2534Z" fill="#B49050"/>
<path d="M0.0348664 43.7731C0.0348664 43.7413 -0.003361 43.7132 0.0280957 43.709C1.06401 43.6092 2.05422 43.4365 2.39952 44.9023C2.64266 45.9351 4.48655 45.8822 4.94022 44.923C5.09694 44.5917 5.21198 44.2451 5.24828 43.8597C5.27875 43.5482 5.48187 43.6938 5.59697 43.6887C6.48557 43.6592 7.20669 44.401 7.20669 45.2901C7.20669 46.4987 7.20669 47.6967 7.20669 48.9032C7.20669 49.284 6.91307 49.5927 6.53226 49.5927C6.0984 49.5927 5.75724 49.1957 5.78615 48.7628C5.79052 48.6974 5.79403 48.6321 5.79677 48.5667C5.83161 47.7344 4.70695 47.4846 4.28741 48.2043C4.27577 48.2242 4.26412 48.2442 4.25246 48.2642C3.92451 48.8268 3.09413 48.7909 2.77928 48.2209C2.38522 47.5076 1.31851 47.748 1.34851 48.5624C1.35162 48.6468 1.35612 48.7313 1.36216 48.8158C1.39117 49.2216 1.06445 49.5944 0.657589 49.5944C0.300857 49.5944 0.0334275 49.305 0.0336713 48.9483C0.0348511 47.2223 0.0348662 45.5118 0.0348664 43.7731Z" fill="#0A0A0A"/>
<path d="M23.5254 43.7915C23.5254 43.7442 23.5544 43.6864 23.6016 43.6896C24.3243 43.7404 24.9726 43.5051 25.5769 44.4327C25.9002 44.9291 26.3195 45.3633 26.7755 45.7751C27.4198 46.3569 28.6258 45.8151 28.5916 44.9477C28.5857 44.7974 28.5758 44.6466 28.5605 44.4953C28.5205 44.099 28.8061 43.7234 29.2044 43.7234C29.5602 43.7234 29.849 44.0254 29.8318 44.3808C29.7671 45.7185 29.7906 47.0632 29.8045 48.4527C29.8111 49.1003 29.2866 49.6223 28.6389 49.6274C28.3969 49.6291 28.2175 49.641 28.2818 49.2703C28.3072 49.123 28.0533 48.9064 27.8942 48.754C27.4802 48.3597 27.0647 47.9672 26.6441 47.5713C25.976 46.9424 24.7921 47.4382 24.8277 48.3551C24.8336 48.5088 24.8427 48.663 24.8561 48.8176C24.8912 49.2247 24.573 49.5986 24.1644 49.5986C23.8063 49.5986 23.5268 49.3085 23.5266 48.9504C23.5254 47.2313 23.5254 45.5235 23.5254 43.7915Z" fill="#0A0A0A"/>
<path d="M19.0044 49.7402C17.7484 49.7402 16.6617 49.3611 15.9982 48.2253C15.4024 47.2029 15.4041 46.1264 15.9965 45.0955C16.8242 43.6585 19.0213 43.1405 20.7292 43.9547C20.8798 44.0275 21.0339 44.1036 21.1676 44.2035C21.4249 44.3965 21.5044 44.1984 21.6026 44.0275C21.7431 43.7837 21.672 43.6906 21.391 43.6601C20.8121 43.5975 20.7614 43.1777 20.8443 42.7258C20.912 42.3568 21.1913 42.2315 21.5366 42.2705C22.0207 42.3246 22.1781 42.6767 22.2171 43.0982C22.2357 43.2911 22.2797 43.5518 22.1798 43.6754C21.6094 44.3812 21.9648 44.9855 22.2255 45.6964C23.0008 47.8021 21.4215 49.7351 19.0044 49.7402ZM18.9773 44.6334C17.7349 44.6334 16.9173 45.4578 16.9292 46.6985C16.941 47.8783 17.767 48.6975 18.9587 48.7144C20.1859 48.7297 21.0474 47.8901 21.0525 46.6748C21.0576 45.4408 20.2349 44.6317 18.9773 44.6334Z" fill="#0A0A0A"/>
<path d="M49.3813 31.4274C49.265 31.4511 49.2307 31.2833 49.3423 31.243C50.7005 30.753 52.1382 30.5352 53.5943 30.4592C55.6205 30.3543 57.65 30.3357 59.6778 30.2697C61.9053 30.1969 64.1176 30.0191 66.2673 29.3624C66.831 29.1897 67.4217 29.1068 68.0209 29.161C68.6692 29.2202 68.7099 29.5266 68.3476 29.9802C67.872 30.5743 67.2203 30.9044 66.5162 31.1363C64.8607 31.683 63.1393 31.8032 61.4246 31.7372C59.0058 31.6441 56.5887 31.4545 54.1749 31.2531C52.5652 31.1177 50.9707 31.1024 49.3813 31.4274Z" fill="#B49050"/>
<path d="M33.4835 56.9452C33.0533 57.2606 32.8635 57.8488 33.1675 58.2872C33.2154 58.3563 33.2636 58.4254 33.3125 58.4944C33.6917 59.0297 33.3224 59.851 32.6663 59.851C32.4971 59.851 32.4463 59.7748 32.4158 59.6022C32.2821 58.854 31.7151 58.3462 31.3156 57.7521C30.9449 57.202 30.3237 57.422 29.8294 57.4863C29.2979 57.554 29.5501 58.0737 29.5265 58.3987C29.4761 59.0933 28.9857 60.1056 28.3458 59.8306C28.3252 59.8218 28.3052 59.8122 28.2857 59.8019C27.8643 59.5768 28.2502 58.9996 28.2163 58.5747C28.1029 57.0936 28.3399 55.6007 28.0809 54.1213C28.0183 53.7642 28.3111 53.8708 28.4668 53.8691C29.6771 53.8657 30.8907 53.8319 32.0976 53.9013C33.3823 53.9757 33.9189 54.3938 34.0611 55.2486C34.1954 56.0421 34.0699 56.5152 33.4835 56.9452ZM31.0216 54.8283C31.014 54.8277 31.0073 54.8337 31.0066 54.8413C31.006 54.8484 31 54.8542 30.9928 54.8542C30.662 54.8545 30.3295 54.8659 29.9987 54.8508C29.6331 54.8339 29.4587 55.01 29.5248 55.3519C29.5958 55.7192 29.2404 56.3218 29.8548 56.403C30.6216 56.5063 31.4172 56.5131 32.1941 56.3692C32.5682 56.2998 32.8001 56.0611 32.8136 55.6803C32.8272 55.2588 32.58 54.9913 32.1738 54.9253C31.7942 54.8668 31.4063 54.8595 31.0216 54.8283Z" fill="#B49050"/>
<path d="M26.4473 31.1199C26.7715 31.1748 26.6299 31.4172 26.3034 31.3786C23.8283 31.0861 21.3826 31.3081 18.9369 31.4838C17.1139 31.6141 15.296 31.8663 13.4629 31.7851C12.085 31.7241 10.7089 31.6124 9.40045 31.1215C8.73693 30.8727 8.10048 30.5664 7.67563 29.9604C7.36587 29.5186 7.39464 29.2325 8.0277 29.2376C8.56258 29.2427 9.10254 29.197 9.6205 29.3595C12.5624 30.2837 15.6092 30.3108 18.6458 30.37C21.2694 30.4225 23.866 30.6747 26.4473 31.1199Z" fill="#B49050"/>
<path d="M65.2365 47.6808C64.5386 47.0356 63.4046 47.5329 63.4046 48.4834C63.4046 48.618 63.4046 48.7537 63.4046 48.8902C63.4046 49.2674 63.1071 49.5732 62.7299 49.5732C62.3527 49.5732 62.0386 49.2674 62.0386 48.8902C62.0386 47.2064 62.0386 45.5208 62.0386 43.7926C62.0386 43.7556 62.0304 43.6912 62.0674 43.6912C62.8443 43.6878 63.4977 43.5626 64.1189 44.4732C64.4327 44.934 64.8292 45.3385 65.2537 45.7156C65.9172 46.3052 67.0855 45.7653 67.0582 44.8781C67.0536 44.7266 67.0465 44.5736 67.0361 44.4196C67.0111 44.0462 67.3092 43.7149 67.6835 43.7149C68.0413 43.7149 68.3128 44.0188 68.2957 44.3762C68.2308 45.7326 68.2606 47.0995 68.2674 48.5118C68.2703 49.1277 67.7695 49.6349 67.1539 49.6206C66.9609 49.6155 66.7138 49.7069 66.7866 49.2956C66.8153 49.1314 66.5293 48.8843 66.3482 48.715C65.9774 48.3674 65.605 48.0216 65.2365 47.6808Z" fill="#0A0A0A"/>
<path d="M9.43638 43.7177C9.76669 43.7177 9.97383 44.0055 9.9431 44.3344C9.83081 45.536 9.8094 46.7288 10.0349 47.8969C10.2025 48.7669 11.0742 48.7229 11.775 48.7043C12.4013 48.6857 13.1376 48.6044 13.2154 47.8258C13.3318 46.6603 13.3282 45.4849 13.255 44.2865C13.2356 43.9687 13.4859 43.6974 13.8043 43.6974C13.8525 43.6974 13.9009 43.6974 13.9493 43.6974C14.0689 43.6974 14.2853 43.6269 14.226 43.5231C14.0059 43.1557 13.9365 42.7834 14.2446 42.4381C14.4612 42.1943 14.7608 42.2028 15.0232 42.3399C15.4311 42.5532 15.4701 42.9543 15.4667 43.3622C15.4633 43.7786 15.3296 44.1747 15.0215 44.4236C14.512 44.8349 14.4816 45.3511 14.5002 45.93C14.5222 46.5766 14.4934 47.2266 14.4748 47.8732C14.4477 48.7889 13.9416 49.3306 13.0868 49.5574C12.0577 49.8299 11.0201 49.8249 9.9943 49.5456C9.1395 49.312 8.65032 48.7534 8.64016 47.8377C8.63001 46.8238 8.61816 45.8082 8.62324 44.7943C8.62343 44.7539 8.62349 44.7137 8.62314 44.6736C8.61934 44.2393 9.00208 43.7177 9.43638 43.7177Z" fill="#0A0A0A"/>
<path d="M74.6132 44.7529C74.6273 44.2999 75.0461 43.7178 75.4994 43.7178C75.8058 43.7178 75.9999 43.9662 75.9999 44.2726C75.9999 45.7095 75.9999 47.1343 75.9999 48.5738C75.9999 49.132 75.5855 49.5846 75.0272 49.5846C74.7041 49.5846 74.5279 49.4398 74.6075 49.1266C74.6094 49.1191 74.6109 49.1115 74.6119 49.1038C74.8759 47.1641 74.7794 47.0439 72.8498 47.0439C71.1808 47.0439 71.1825 47.0439 71.2113 48.723C71.218 49.0891 70.893 49.5744 70.5268 49.5744C70.4965 49.5744 70.4662 49.5744 70.436 49.5744C70.0942 49.5744 69.8055 49.2146 69.8333 48.874C69.9086 47.9507 69.9188 46.379 69.8662 45.1916C69.8337 44.4566 70.5822 43.3334 71.1944 43.7415C71.5194 43.9581 71.2282 44.6217 71.1859 45.0702C71.1047 45.9182 71.4127 46.1417 72.2066 46.0503C72.8176 45.9809 73.4456 46.0046 74.0634 46.0469C74.534 46.0774 74.6576 45.881 74.6102 45.4646C74.5832 45.2312 74.6057 44.9927 74.6132 44.7529Z" fill="#0A0A0A"/>
<path d="M36.3482 43.9264C36.6919 44.0655 37.0301 44.6549 36.8657 44.9873C36.7403 45.2406 36.421 45.2471 36.1838 45.0933C35.4126 44.5933 34.3689 44.4686 33.5697 44.7984C32.7217 45.1487 32.2918 45.8495 32.3273 46.8008C32.3595 47.6217 32.7725 48.1938 33.5037 48.5036C34.3517 48.8641 35.2082 48.7423 36.0596 48.4494C36.4269 48.3225 36.4083 48.0584 36.3931 47.7741C36.3728 47.4 36.0766 47.5472 35.8836 47.5219C35.7177 47.4998 35.5332 47.4762 35.3792 47.5235C35.2186 47.572 35.0842 47.5991 34.9721 47.608C34.2105 47.6684 35.1862 46.6942 35.95 46.6844C36.7949 46.6736 37.2646 47.5549 37.5163 48.3615C37.525 48.3893 37.5343 48.4169 37.5441 48.4444C37.6711 48.7964 37.6084 48.8641 37.3545 48.9894C36.1409 49.592 34.8748 49.9288 33.5173 49.6512C31.7924 49.2975 30.8885 48.1177 30.9833 46.3996C31.0663 44.9101 32.2393 43.7912 33.8896 43.6372C34.7106 43.561 35.518 43.605 36.3017 43.908C36.3172 43.914 36.3327 43.9201 36.3482 43.9264Z" fill="#0A0A0A"/>
<path d="M48.5249 48.7372C48.5781 49.1752 48.229 49.6053 47.7877 49.6053C47.4267 49.6053 47.1719 49.3126 47.1719 48.9515C47.1719 47.5545 47.1719 46.1651 47.1719 44.7606C47.1719 44.1877 47.6106 43.7232 48.1835 43.7232C48.4791 43.7232 48.6283 43.8486 48.5869 44.1413C48.3381 45.9542 48.4092 46.0896 50.2424 46.0066C50.8043 45.9813 51.6693 46.5331 51.9299 45.619C52.0209 45.2984 52.0542 44.9425 52.0212 44.5803C51.9823 44.1524 52.3242 43.708 52.754 43.708C53.0932 43.708 53.3212 43.9874 53.3136 44.3266C53.2753 46.0495 53.2566 47.7577 53.3566 49.4927C53.3591 49.5356 53.3338 49.6154 53.2909 49.6154C53.2347 49.6148 53.1785 49.6141 53.1224 49.6133C52.4379 49.6039 51.9538 49.0135 51.9621 48.329C51.9756 47.0443 51.9672 47.0443 50.6943 47.0443C50.6384 47.0443 50.5775 47.029 50.5267 47.0459C49.8954 47.2525 48.9542 46.5601 48.636 47.4149C48.4943 47.7999 48.4669 48.2595 48.5249 48.7372Z" fill="#0A0A0A"/>
<path d="M38.4464 59.9086C36.8079 59.9103 35.7263 59.2603 35.2117 57.9654C34.7412 56.7789 35.0323 55.3976 36.0344 54.5835C37.2971 53.5594 38.7308 53.5543 40.1696 54.1552C41.3121 54.6326 41.9062 55.7633 41.8351 57.1157C41.7488 58.7711 40.371 59.9069 38.4464 59.9086ZM38.4481 58.8845C39.677 58.8778 40.5047 58.0365 40.4878 56.8093C40.4708 55.6312 39.6448 54.8238 38.4481 54.8137C37.2142 54.8035 36.3848 55.6245 36.3831 56.8533C36.3814 58.1042 37.182 58.8913 38.4481 58.8845Z" fill="#B49050"/>
<path d="M26.3084 54.6798C26.0721 55.1578 25.4475 55.2629 24.9612 55.044C24.3133 54.7524 23.6391 54.7351 22.9315 54.9405C22.0124 55.2062 21.5029 55.9662 21.5181 56.9107C21.5334 57.8552 22.0801 58.5712 23.0263 58.8014C23.7525 58.9792 24.4769 58.9115 25.1895 58.6626C25.5162 58.5492 25.6076 58.3393 25.5805 58.0177C25.5484 57.6149 25.2539 57.7097 25.0186 57.6995C24.7647 57.6877 24.5006 57.6521 24.2603 57.7097C23.8591 57.8061 23.6661 57.7791 23.6712 57.2797C23.6763 56.8109 23.8134 56.7465 24.2484 56.8329C24.6563 56.9124 25.0914 56.8515 25.5128 56.8532C26.1519 56.8532 26.5133 57.5172 26.6134 58.1484C26.6289 58.2456 26.6552 58.3395 26.6943 58.429C26.9499 59.0147 26.6791 59.14 26.2593 59.3262C25.3165 59.7442 24.3449 59.9575 23.3073 59.9118C21.4995 59.8306 20.2114 58.6576 20.1775 57.0224C20.142 55.2198 21.3066 53.979 23.1566 53.7979C24.1993 53.6964 25.1591 53.9892 26.134 54.2752C26.4336 54.3633 26.4116 54.4733 26.3084 54.6798Z" fill="#B49050"/>
<path d="M60.8878 48.9867C61.0289 49.2898 60.8006 49.6346 60.4665 49.6232C59.9367 49.6046 59.2884 49.8703 59.2918 48.8716C59.2935 48.3368 58.8568 48.0152 58.2187 48.1099C57.8056 48.1709 57.3689 48.1709 56.9542 48.1116C56.1621 47.9965 55.832 48.6059 55.8946 49.09C55.9793 49.7467 55.6813 49.6249 55.3276 49.6249C54.8435 49.6226 54.525 49.1194 54.7328 48.6822C55.4108 47.2557 56.072 45.8521 56.7799 44.4724C56.9305 44.1796 56.4955 43.7903 56.8967 43.7124C57.4129 43.6125 57.9614 43.6853 58.4963 43.6921C58.5504 43.6921 58.6249 43.6684 58.6418 43.8106C58.8821 45.7477 60.0786 47.2491 60.8878 48.9867ZM57.087 46.4142C56.898 46.8231 57.1857 47.3045 57.6362 47.2995C58.5974 47.2889 58.475 47.0272 57.8683 45.7301C57.7752 45.5336 57.4887 45.5463 57.3973 45.7435C57.2915 45.972 57.1893 46.193 57.087 46.4142Z" fill="#0A0A0A"/>
<path d="M50.2883 57.0764C50.2883 56.2622 50.4017 55.4261 50.2578 54.6373C50.1122 53.8333 50.4745 53.8333 51.0381 53.8586C52.1874 53.9077 53.3435 53.7757 54.4894 53.9433C55.5304 54.0956 56.0704 54.7033 56.0602 55.6816C56.0501 56.6482 55.4864 57.2609 54.437 57.3625C53.7125 57.4336 52.9796 57.4539 52.2501 57.442C51.766 57.4352 51.5916 57.6164 51.6305 58.0835C51.6559 58.3899 51.5662 58.7217 51.6492 59.006C51.8811 59.805 51.5137 59.9015 50.8367 59.871C50.3018 59.8473 50.1461 59.783 50.2595 59.1753C50.3847 58.4999 50.2866 57.7789 50.2883 57.0764ZM53.0437 54.8189C53.0326 54.8177 53.0223 54.8257 53.0213 54.8368C53.0202 54.8481 53.011 54.8573 52.9997 54.8573C52.668 54.8569 52.3363 54.8474 52.0063 54.859C51.5002 54.8793 51.6238 55.2822 51.6492 55.553C51.6779 55.8661 51.3986 56.3926 51.9826 56.4298C52.7088 56.4755 53.4468 56.5331 54.1712 56.3723C54.5639 56.2842 54.7163 56.0151 54.7078 55.6258C54.6993 55.2703 54.5453 55.0164 54.1932 54.9504C53.8139 54.8822 53.4265 54.8598 53.0437 54.8189Z" fill="#B49050"/>
<path d="M47.544 54.2062C47.5187 54.0592 47.5957 53.8817 47.7446 53.8724C48.8195 53.7979 48.8127 53.7996 48.8025 54.8727C48.7924 55.8291 48.8127 56.7854 48.7958 57.7418C48.7721 59.0638 48.2135 59.7104 46.8915 59.8576C46.2246 59.9321 45.5374 59.9338 44.8722 59.8593C43.5062 59.7087 42.9544 59.0722 42.89 57.6978C42.8359 56.5214 42.9933 55.3382 42.802 54.1669C42.758 53.8994 42.8799 53.8774 43.0525 53.8707C43.3894 53.8588 43.7279 53.8605 44.0647 53.8673C44.3576 53.8741 44.3186 53.9485 44.2933 54.2566C44.2002 55.4296 44.1917 56.6162 44.256 57.7909C44.3017 58.6372 44.9568 58.9537 46.2094 58.8793C47.1268 58.8234 47.555 58.4476 47.5855 57.6284C47.6075 57.0106 47.6007 56.391 47.5923 55.7732C47.5821 55.253 47.634 54.7278 47.544 54.2062Z" fill="#B49050"/>
<path d="M63.0156 32.8277C63.4938 32.7694 63.8119 33.2744 63.4319 33.5704C62.9744 33.9267 62.4317 34.079 61.8629 34.1717C59.7369 34.5204 57.7311 33.9178 55.7236 33.3473C54.9899 33.1385 54.2618 32.9017 53.5286 32.69C52.9794 32.5315 52.9909 31.9645 53.557 32.044C56.6952 32.4841 59.808 33.2288 63.0156 32.8277Z" fill="#B49050"/>
<path d="M43.6493 49.5857C43.2202 49.5851 42.8359 49.0735 42.8434 48.6445C42.8494 48.2976 42.797 47.9515 42.8121 47.6133C42.8477 46.7975 42.8223 45.9799 42.8189 45.164C42.8189 44.9457 42.8697 44.663 42.5193 44.6867C42.1167 44.7135 41.7035 44.6409 41.2945 44.6711C40.9372 44.6975 40.5186 44.4307 40.5186 44.0725C40.5186 43.8041 40.7484 43.61 41.0162 43.6281C42.6333 43.7376 44.2444 43.7055 45.8829 43.6427C46.1431 43.6327 46.3599 43.7758 46.3599 44.0362C46.3599 44.3828 45.9702 44.6962 45.6242 44.6752C45.243 44.652 44.8525 44.7071 44.4675 44.6816C44.2763 44.6681 44.1256 44.7341 44.1256 44.9507C44.1226 46.3056 44.1236 47.6591 44.1239 49.0393C44.1239 49.3414 43.9514 49.5862 43.6493 49.5857Z" fill="#0A0A0A"/>
<path d="M12.0566 32.8196C12.0544 32.8218 12.0559 32.8255 12.059 32.8256C13.627 32.86 15.1816 33.0604 16.7649 32.9016C18.7283 32.7052 20.6597 32.3345 22.6096 32.0671C23.8724 31.8944 25.1317 31.908 26.4029 32.0569C23.3256 32.1026 20.5767 33.5516 17.6112 34.0712C16.3586 34.2912 15.0976 34.4791 13.845 34.1389C13.0985 33.9362 12.3065 33.7285 12.0625 32.8213C12.0618 32.8186 12.0585 32.8177 12.0566 32.8196Z" fill="#B49050"/>
<path d="M19.2305 42.5828C19.3456 42.9036 19.0375 43.3179 18.7626 43.1166C18.3402 42.8072 18.8843 41.8635 19.1235 42.3292C19.1637 42.4076 19.1985 42.4934 19.2305 42.5828Z" fill="#0A0A0A"/>
<path d="M42.6767 33.1537C42.6747 33.1518 42.6725 33.1538 42.6719 33.1565C42.6646 33.1879 42.6573 33.2199 42.65 33.2516C42.6444 33.2757 42.6152 33.2853 42.5969 33.2688C42.5965 33.2684 42.596 33.268 42.5955 33.2675C42.5811 33.2544 42.5831 33.2316 42.5992 33.2206C42.6251 33.2029 42.6513 33.1855 42.677 33.1687C42.6799 33.1668 42.6792 33.1561 42.6767 33.1537Z" fill="#B49050"/>
<path d="M12.0569 32.8218C12.0597 32.8195 12.0597 32.8153 12.0571 32.8129C12.052 32.8083 12.0445 32.8147 12.0482 32.8204C12.0501 32.8234 12.0542 32.824 12.0569 32.8218Z" fill="#B49050"/>
</svg>
