<svg width="66" height="66" viewBox="0 0 66 66" fill="none" xmlns="http://www.w3.org/2000/svg">
<path d="M60.0592 25.9829C60.0625 40.3625 48.4741 52.1413 34.3209 52.1429C19.9904 52.1429 8.42008 40.4003 8.44633 25.8828C8.47259 11.6147 20.0971 -0.00328121 34.3455 6.95148e-07C48.4593 0.0032826 60.056 11.7197 60.0592 25.9829ZM26.9546 33.7544C26.1029 33.9464 25.8798 34.9883 26.6809 35.3358C29.6107 36.6065 32.6221 37.6132 35.8224 38.0554C37.0219 38.2211 38.228 38.3425 39.38 37.8814C41.505 37.0314 42.4846 35.0918 42.1499 32.6057C41.8447 30.3363 41.0308 28.2244 40.2365 26.101C39.0682 22.9816 37.7981 19.8933 37.3304 16.5621C36.6576 11.7689 38.7186 7.86673 43.0114 5.92548C43.4216 5.73983 43.2945 5.20915 42.8523 5.29401C39.8494 5.87021 36.9618 6.81223 34.3307 8.54116C31.1046 10.6596 29.1896 13.6068 28.8582 17.5073C28.6005 20.548 29.2864 23.4213 30.3924 26.2208C30.5563 26.6362 30.0315 27.0198 29.6782 26.7467C27.8583 25.3399 25.8777 24.244 23.7253 23.4197C23.4158 23.3013 23.079 23.1885 22.7236 23.0825C20.1585 22.3175 19.9064 23.9856 22.2107 25.3478C24.5031 26.7016 26.6937 28.185 28.2625 30.4036C29.4407 32.0708 28.9484 33.3064 26.9546 33.7544ZM22.9355 41.8953C22.8592 41.848 22.7567 41.8849 22.7326 41.9714C22.7231 42.0054 22.7277 42.0421 22.746 42.0723C23.0574 42.5852 23.5303 43.0786 23.5923 43.6198C23.6969 44.5208 23.8258 44.9204 24.6583 45.2804C24.9739 45.417 25.2591 45.6688 25.5073 46.0911C25.7338 46.4767 25.8847 45.8597 25.8716 45.6989C25.7879 44.6503 26.3885 44.1942 27.273 43.9168C27.6537 43.7968 27.6113 43.4117 27.2247 43.3122C27.0995 43.2799 26.9727 43.2585 26.8496 43.2408C26.1818 43.144 26.0226 42.778 26.062 42.1643C26.1015 41.557 25.5004 41.5241 25.0322 41.9128C24.4819 42.3697 23.8082 42.4359 22.9355 41.8953ZM16.3177 37.4679C16.2972 37.4563 16.2745 37.449 16.251 37.4474C16.1371 37.4394 16.058 37.5586 16.1021 37.664C16.3738 38.3128 16.3543 38.8477 16.1451 39.3127C15.8546 39.9586 16.0949 40.6069 16.7545 40.8647C16.8837 40.915 16.9731 40.9964 17.039 41.0991C17.4152 41.685 17.8747 41.5824 18.4722 41.2249C18.8229 41.015 19.2684 40.9529 19.7847 40.9939C19.9769 41.0092 20.1766 40.75 20.0183 40.6399C19.1125 40.0081 18.8319 39.2188 19.3587 38.1981C19.4112 38.0964 19.4112 37.8945 19.3439 37.8191C19.2061 37.6632 19.0321 37.8076 18.9189 37.8929C18.1099 38.5017 17.3846 38.3474 16.6888 37.6976C16.5871 37.5989 16.4461 37.541 16.3177 37.4679ZM42.9047 41.4095C42.7492 41.1763 42.4321 41.3803 42.4253 41.6605C42.414 42.1222 42.589 42.621 42.2828 42.9963C42.0442 43.2885 41.6433 43.3639 41.2678 43.5304C40.9501 43.6713 41.0344 44.1268 41.3803 44.1597C42.291 44.245 42.6274 44.7619 42.6028 45.6349C42.5884 46.1407 43.0965 46.0128 43.4294 45.6317C43.8217 45.1827 44.3719 45.1282 45.0432 45.3361C45.3073 45.4179 45.6266 45.0925 45.4367 44.8916C44.7853 44.2073 44.7442 43.5427 45.4449 42.8716C45.4843 42.8338 45.5188 42.7895 45.5417 42.7403C45.6057 42.5959 45.7469 42.417 45.7058 42.3103C45.6189 42.0823 45.3596 42.1709 45.207 42.2267C44.2027 42.5975 43.4725 42.2463 42.9047 41.4095ZM32.668 47.103C32.5955 47.254 32.7695 47.5055 32.89 47.3891C33.7515 46.544 34.6228 46.3963 35.5254 47.33C35.6156 47.4236 35.783 47.5319 35.8683 47.3907C35.9389 47.2726 35.929 47.0708 35.888 46.9247C35.6386 46.0583 35.7223 45.3231 36.6149 44.8587C36.7495 44.7882 36.9464 44.6947 36.8529 44.501C36.8086 44.4091 36.6215 44.3254 36.5083 44.3353C35.271 44.4485 34.8624 43.6904 34.7016 42.6533C34.6611 42.3983 34.334 42.6283 34.2624 42.8763C34.2099 43.058 34.1445 43.2252 34.0649 43.3758C33.8105 43.8566 33.0048 45.8404 32.9109 46.3762C32.8701 46.6092 32.7889 46.8512 32.668 47.103ZM53.2706 40.7859C53.4697 40.7826 53.5453 40.525 53.3907 40.3997C52.9298 40.0261 52.5151 39.731 52.2943 39.3304C52.2022 39.1627 52.1953 38.9904 52.2292 38.8082C52.3397 38.2148 51.8653 38.0063 51.2832 38.1659C51.2334 38.1795 51.1833 38.1908 51.133 38.1997C50.5097 38.3095 49.7506 38.8672 49.7212 39.4994C49.6804 40.4056 49.7744 40.7518 50.4806 41.3212C50.7215 41.5154 50.9045 41.8123 51.0077 42.2529C51.0258 42.3284 51.1653 42.4351 51.2391 42.4269C51.4426 42.4055 51.4311 42.1922 51.4853 42.0511C51.9529 40.8138 51.9513 40.8138 53.2706 40.7859Z" fill="#E11E23"/>
<path d="M5.62912 59.6727C5.86783 60.5238 7.1718 60.543 7.49999 59.7223C8.17809 58.0264 8.85486 56.3482 9.00784 54.5103C9.02589 54.2855 9.1063 54.1312 9.34424 54.1444C9.93498 54.1755 10.6488 53.8982 11.0722 54.2806C11.3183 54.5021 10.7833 55.0748 10.6291 55.5014C9.54279 58.5011 8.49258 61.5139 7.59498 64.5759C7.48175 64.9632 7.33243 65.1158 6.93203 65.1092C5.92121 65.0895 4.91038 65.0895 3.90119 65.1092C3.52213 65.1174 3.40234 64.9468 3.29568 64.6104C2.23398 61.2858 1.15916 57.9661 0.0630023 54.6514C-0.0781197 54.2248 0.00720989 54.1247 0.427294 54.1312C1.52017 54.146 2.6114 54.1345 3.70428 54.1345C3.95698 54.1345 4.23431 54.1263 4.24251 54.4775C4.28025 56.3235 5.14339 57.9481 5.62912 59.6727Z" fill="#E1232A"/>
<path d="M32.7873 61.5384C32.7935 59.5509 34.3491 57.8249 36.3366 57.8273C37.0839 57.8281 37.832 57.8344 38.5796 57.8523C39.6741 57.8786 40.1697 58.4874 40.1812 59.6065C40.1861 60.0709 40.1894 60.5337 40.1713 60.998C40.1566 61.3952 40.0614 61.812 39.6397 61.9268C39.0128 62.0975 39.2262 62.3961 39.4198 62.7539C39.9944 63.8132 39.2058 65.0879 38.0008 65.102C37.9207 65.103 37.8407 65.1041 37.7608 65.1053C37.4047 65.1103 37.408 64.8526 37.3243 64.6262C37.0699 63.937 36.7992 63.2527 36.5301 62.5684C36.3988 62.2337 36.1904 62.0007 35.79 62.0794C35.3814 62.1598 35.5176 62.4979 35.5143 62.7424C35.5094 63.3676 35.4323 63.9993 35.5898 64.6163C35.6817 64.979 35.575 65.1168 35.2009 65.1103C33.8264 65.0889 32.7422 63.9516 32.7735 62.5772C32.7815 62.2307 32.7862 61.8845 32.7873 61.5384ZM35.5973 60.6205C36.0716 61.1056 37.2225 61.0148 37.3964 60.3591C37.4273 60.2427 37.4432 60.097 37.4424 59.9167C37.4392 58.9419 36.9141 59.0108 36.2347 58.96C35.2682 58.8878 35.5701 59.5343 35.4963 60.0233C35.4506 60.3339 35.4947 60.5156 35.5973 60.6205Z" fill="#990833"/>
<path d="M44.7982 65.1025C44.1418 65.1025 43.4871 65.1124 42.8307 65.1009C41.6541 65.0796 40.9863 64.4708 40.9469 63.2942C40.9058 62.0668 40.9108 60.8344 40.9567 59.607C40.9977 58.4878 41.5081 57.9299 42.6272 57.8758C44.0991 57.8052 45.5777 57.8101 47.0512 57.8512C47.9472 57.8774 48.5182 58.4403 48.5888 59.4675C48.684 60.8541 48.6774 62.2522 48.6298 63.6421C48.6019 64.4543 47.875 65.0435 47.0118 65.096C46.6311 65.1189 46.2472 65.1025 45.8648 65.1025C45.5087 65.1025 45.1526 65.1025 44.7982 65.1025ZM43.6971 61.4087C43.6971 61.9814 43.7332 62.5558 43.6889 63.1235C43.6183 64.0179 44.3141 63.9046 44.7884 63.921C45.2544 63.9375 45.9075 63.9982 45.9157 63.2105C45.9272 62.0389 45.9452 60.8672 45.9108 59.6972C45.8845 58.8144 45.1822 58.9965 44.6341 58.9785C44.0877 58.9604 43.6528 59.0655 43.6906 59.7744C43.7217 60.3175 43.6971 60.8639 43.6971 61.4087Z" fill="#990833"/>
<path d="M28.243 57.8358C28.2427 57.8305 28.2471 57.8268 28.2525 57.8268C29.0402 57.8267 29.8295 57.817 30.6173 57.8301C31.1473 57.8383 31.5182 58.4208 31.3409 58.9098C31.2622 59.1264 31.1178 59.1002 30.952 59.0723C29.8936 58.8918 28.827 59.0427 27.7669 58.982C27.2303 58.9525 27.0121 59.2183 27.0088 59.7057C27.0022 60.879 27.0006 62.0522 27.0137 63.2255C27.0219 63.9804 27.5635 63.964 28.1099 63.9672C28.6465 63.9705 28.9451 63.7802 28.9156 63.2058C28.9058 63.0155 28.8893 62.8202 28.9189 62.6331C29.0223 61.9751 28.6859 61.8045 28.1197 61.9029C27.7259 61.9718 27.4273 62.0096 27.4568 61.4352C27.4781 61.007 27.4814 60.705 28.0574 60.7264C29.1207 60.7657 30.1857 60.7378 31.2507 60.7378C31.5657 60.7378 31.7085 60.7411 31.6248 61.194C31.4099 62.3476 31.4492 63.5291 31.6084 64.6909C31.656 65.0371 31.633 65.1471 31.3048 65.111C30.6698 65.0404 29.9953 65.3276 29.4013 64.9042C29.211 64.768 29.1125 64.9781 28.9681 64.9978C27.6947 65.1799 26.4164 65.1783 25.148 64.9945C24.6721 64.9256 24.3833 64.5547 24.339 64.0772C24.1847 62.3903 24.1864 60.6968 24.3291 59.0116C24.3997 58.1862 25.0512 57.8908 25.7879 57.8563C26.6012 57.8171 27.4177 57.8478 28.2327 57.8481C28.2388 57.8481 28.2433 57.8419 28.243 57.8358Z" fill="#990833"/>
<path d="M17.0165 59.7507C16.942 59.7637 16.8876 59.8281 16.8861 59.9036C16.8563 61.3981 16.6798 62.8967 17.0163 64.383C17.1361 64.9163 17.1377 65.1542 16.4731 65.1214C15.8463 65.0902 15.5837 65.1723 15.6658 64.255C15.843 62.2563 15.9053 60.2215 15.6083 58.2146C15.5607 57.8881 15.6444 57.8224 15.9136 57.8224C16.9244 57.8241 17.9369 57.8421 18.9477 57.8224C19.3579 57.8142 19.435 58.108 19.5548 58.3738C20.1013 59.5651 20.6346 60.763 21.1859 61.9527C21.2407 62.0703 21.2863 62.1938 21.3363 62.3153C21.4896 62.6871 21.8691 62.6944 21.8587 62.2924C21.821 60.9041 21.9572 59.5143 21.8013 58.1293C21.7767 57.9078 21.8735 57.829 22.0655 57.8274C22.3937 57.8224 22.7219 57.8224 23.0501 57.8257C23.2371 57.8274 23.4176 57.8979 23.2929 58.1096C22.7531 59.0335 23.0665 60.0361 23.0205 61.001C22.9647 62.1463 22.9877 63.2967 23.0156 64.4437C23.0271 64.9212 22.9089 65.105 22.3855 65.1181C19.6582 65.1854 19.6582 65.2002 18.4964 62.6911C18.057 61.7412 17.6221 60.7897 17.1845 59.8396C17.1549 59.7753 17.0862 59.7385 17.0165 59.7507Z" fill="#E1232A"/>
<path d="M61.3242 63.2141C61.3679 64.1001 60.6075 65.2069 59.7205 65.1952C59.4242 65.1912 59.1551 65.1456 58.9333 65.0175C58.2605 64.6303 58.825 63.5243 58.7725 62.7366C58.6855 61.4616 58.7758 60.1751 58.7397 58.8951C58.7102 57.8285 58.6773 57.8302 59.7719 57.8302C61.2438 57.8302 62.7174 57.817 64.1893 57.8334C65.5644 57.8499 65.9943 58.2946 65.996 59.6369C65.996 60.0996 66.0026 60.564 65.9976 61.0267C65.9861 61.9539 65.5562 62.4478 64.6258 62.497C63.7561 62.543 62.8798 62.5463 62.0101 62.5069C61.4555 62.4823 61.2963 62.6939 61.3242 63.2141ZM62.23 58.9559C61.0232 58.8607 61.0254 61.3269 62.2322 61.2315C62.2492 61.2302 62.2666 61.2286 62.2842 61.2269C63.313 61.1268 63.382 61.1383 63.3869 60.0044C63.3902 59.0034 63.3557 59.0461 62.23 58.9559Z" fill="#990833"/>
<path d="M56.2964 57.827C56.8293 57.8538 57.2199 58.3441 57.1757 58.8758C57.1039 59.7385 57.2008 60.5752 57.1645 61.4043C57.135 62.0853 57.1645 62.7696 57.1185 63.4506C57.0545 64.4286 56.321 65.0965 55.3447 65.1014C54.0614 65.1079 52.7782 65.0915 51.495 65.1063C50.6581 65.1161 50.1773 64.6977 49.9476 63.9248C49.6998 63.0978 49.7687 62.2494 49.7556 61.4043C49.7392 60.3705 49.8704 59.3269 49.6013 58.3078C49.5078 57.955 49.5849 57.809 49.9771 57.8221C50.7139 57.8451 51.4507 57.8434 52.1875 57.827C52.5633 57.8188 52.6437 57.9599 52.5994 58.3193C52.4074 59.8963 52.5665 61.4831 52.5025 63.0633C52.4812 63.618 52.6995 63.8001 53.2344 63.8953C55.6171 64.3154 55.855 64.1447 55.8484 61.8031C55.8452 60.6577 55.8714 59.5074 55.7844 58.3669C55.7467 57.8713 55.8944 57.8024 56.2964 57.827Z" fill="#990833"/>
<path d="M11.5726 61.3722C11.5678 61.3717 11.564 61.368 11.564 61.3632C11.5642 60.3553 11.5951 59.3474 11.5476 58.3427C11.5279 57.9358 11.6116 57.7782 12.0136 57.8225C12.0399 57.8258 12.0678 57.8225 12.0957 57.8225C12.8604 57.8275 13.8105 57.56 14.3323 57.9194C14.7885 58.2328 14.2847 59.2338 14.3356 59.9443C14.4504 61.5459 14.1961 63.1638 14.4915 64.7605C14.544 65.046 14.4488 65.1002 14.2191 65.1067C14.1649 65.1084 14.1091 65.1051 14.055 65.1051C13.264 65.0969 12.2549 65.3791 11.7396 64.9984C11.1964 64.5964 11.6526 63.5363 11.5853 62.7651C11.5461 62.3061 11.5785 61.8421 11.5788 61.3798C11.5788 61.3761 11.5763 61.3727 11.5726 61.3722Z" fill="#E1232A"/>
<path d="M26.6858 35.3372C25.8852 34.9901 26.1086 33.945 26.96 33.7539C28.9537 33.3076 29.446 32.0703 28.2678 30.4031C26.6991 28.1845 24.5084 26.7011 22.216 25.3473C19.9087 23.9843 20.1608 22.3162 22.7288 23.082C23.0843 23.188 23.4211 23.3008 23.7306 23.4192C25.8831 24.2435 27.8636 25.3394 29.6835 26.7462C30.0352 27.0181 30.5609 26.6339 30.3978 26.2203C29.2918 23.4208 28.6058 20.5459 28.8635 17.5068C29.195 13.6063 31.1099 10.6591 34.3361 8.54068C36.9681 6.81193 39.8556 5.86993 42.8576 5.29371C43.2973 5.20931 43.4245 5.74016 43.0167 5.925C38.724 7.86788 36.6629 11.7701 37.3357 16.5617C37.8034 19.8944 39.0735 22.9827 40.2419 26.1005C41.0361 28.2223 41.85 30.3358 42.1552 32.6053C42.49 35.0913 41.5103 37.0309 39.3853 37.8809C38.2333 38.342 37.0256 38.2206 35.8277 38.0549C32.6254 37.613 29.6144 36.607 26.6858 35.3372Z" fill="#FBED03"/>
<path d="M22.7335 41.9724C22.7569 41.8861 22.8592 41.8482 22.9352 41.8953C23.8089 42.4368 24.4832 42.3701 25.0343 41.9117C25.5023 41.5225 26.1035 41.5556 26.064 42.1631C26.0246 42.7752 26.1838 43.1427 26.8516 43.2396C26.9749 43.2573 27.1018 43.2788 27.2271 43.3111C27.6133 43.4106 27.6554 43.7957 27.275 43.9156C26.3905 44.1929 25.7883 44.6508 25.8736 45.6977C25.8868 45.8585 25.7358 46.4755 25.5093 46.0899C25.2615 45.6673 24.9764 45.4154 24.6605 45.279C23.8269 44.9189 23.699 44.5206 23.5944 43.6186C23.5306 43.0771 23.0572 42.5834 22.7474 42.0702C22.7294 42.0405 22.7244 42.0059 22.7335 41.9724Z" fill="#F9E508"/>
<path d="M16.2527 37.4467C16.2756 37.4483 16.2975 37.4552 16.3175 37.4664C16.4459 37.5386 16.5861 37.598 16.691 37.6969C17.3868 38.3467 18.1121 38.5009 18.9211 37.8921C19.0343 37.8068 19.2082 37.6608 19.3461 37.8183C19.4117 37.8938 19.4133 38.0956 19.3608 38.1973C18.8341 39.218 19.1147 40.0073 20.0205 40.6391C20.1776 40.7508 19.9791 41.0084 19.787 40.9931C19.2706 40.9521 18.8251 41.0142 18.4743 41.2241C17.8768 41.5816 17.4174 41.6842 17.0412 41.0983C16.9752 40.9956 16.8859 40.9142 16.7566 40.8639C16.097 40.6061 15.8568 39.9578 16.1473 39.312C16.3566 38.8468 16.376 38.3116 16.104 37.6625C16.06 37.5575 16.1392 37.4386 16.2527 37.4467Z" fill="#F9E508"/>
<path d="M42.425 41.6596C42.432 41.3801 42.7477 41.1765 42.9044 41.4081C43.4722 42.2466 44.2024 42.5961 45.2066 42.2253C45.3592 42.1695 45.6185 42.0809 45.7055 42.3089C45.7465 42.4172 45.6054 42.5961 45.5414 42.7389C45.5201 42.7881 45.484 42.8324 45.4446 42.8701C44.7439 43.5413 44.7849 44.2059 45.4364 44.8902C45.6274 45.0901 45.3069 45.4165 45.0427 45.3348C44.3717 45.1273 43.8217 45.1821 43.4295 45.6306C43.0963 46.0114 42.5881 46.1393 42.6024 45.6335C42.6271 44.7605 42.2907 44.2436 41.3799 44.1583C41.034 44.1253 40.9497 43.6699 41.2673 43.5287C41.6428 43.3618 42.0438 43.2861 42.2825 42.9949C42.5889 42.6205 42.4134 42.1215 42.425 41.6596Z" fill="#F9E508"/>
<path d="M32.8916 47.3912C32.7674 47.5034 32.5961 47.2538 32.6687 47.103C32.7899 46.8511 32.8712 46.609 32.9121 46.376C33.006 45.8415 33.8119 43.8601 34.0661 43.3806C34.1462 43.2295 34.2117 43.0617 34.2643 42.8793C34.3359 42.6308 34.6667 42.3994 34.7033 42.6554C34.8641 43.6925 35.271 44.4506 36.5099 44.3374C36.6232 44.3275 36.8102 44.4112 36.8545 44.5031C36.9481 44.6951 36.7512 44.7903 36.6166 44.8608C35.7239 45.3252 35.6402 46.0587 35.8897 46.9268C35.9323 47.0728 35.9422 47.2747 35.87 47.3928C35.7846 47.5339 35.6173 47.4256 35.527 47.3321C34.6245 46.3984 33.7531 46.5477 32.8916 47.3912Z" fill="#F9E508"/>
<path d="M53.3891 40.3981C53.5449 40.5242 53.4695 40.7835 53.2691 40.7868C51.9514 40.813 51.9531 40.813 51.4837 42.0519C51.4296 42.1947 51.4411 42.4064 51.2376 42.4277C51.1654 42.4359 51.0243 42.3293 51.0062 42.2538C50.9029 41.8122 50.7199 41.5149 50.4788 41.3205C49.7733 40.7514 49.6765 40.4056 49.7197 39.5003C49.7491 38.8684 50.5085 38.3103 51.1315 38.2005C51.1829 38.1915 51.234 38.1799 51.2848 38.1659C51.8665 38.0052 52.3407 38.2129 52.2285 38.8058C52.1938 38.9892 52.2002 39.1627 52.2927 39.3312C52.5147 39.7303 52.9283 40.025 53.3891 40.3981Z" fill="#F9E508"/>
</svg>
